M48
; DRILL file {KiCad (7.0.0)} date Thu Oct 26 11:16:48 2023
; FORMAT={-:-/ absolute / inch / decimal}
; #@! TF.CreationDate,2023-10-26T11:16:48+02:00
; #@! TF.GenerationSoftware,Kicad,Pcbnew,(7.0.0)
; #@! TF.FileFunction,Plated,1,4,PTH
FMAT,2
INCH
; #@! TA.AperFunction,Plated,PTH,ComponentDrill
T1C0.0118
; #@! TA.AperFunction,Plated,PTH,ViaDrill
T2C0.0157
; #@! TA.AperFunction,Plated,PTH,ComponentDrill
T3C0.0197
; #@! TA.AperFunction,Plated,PTH,ComponentDrill
T4C0.0374
; #@! TA.AperFunction,Plated,PTH,ComponentDrill
T5C0.0394
; #@! TA.AperFunction,Plated,PTH,ComponentDrill
T6C0.0728
; #@! TA.AperFunction,Plated,PTH,ComponentDrill
T7C0.1260
%
G90
G05
T1
X6.37Y-3.7406
X6.37Y-3.78
X6.37Y-3.8194
X6.4252Y-3.7406
X6.4252Y-3.78
X6.4252Y-3.8194
X7.2937Y-3.7456
X7.2937Y-3.785
X7.2937Y-3.8244
X7.3489Y-3.7456
X7.3489Y-3.785
X7.3489Y-3.8244
T2
X5.26Y-3.27
X5.3999Y-3.3495
X5.435Y-3.7141
X5.58Y-3.58
X5.66Y-3.35
X5.695Y-3.5
X5.835Y-3.39
X5.8386Y-3.4528
X5.8541Y-3.2869
X5.874Y-3.4528
X5.8858Y-3.811
X5.8858Y-3.8425
X5.89Y-3.185
X5.94Y-2.66
X6.0825Y-3.5551
X6.1102Y-3.8583
X6.125Y-2.715
X6.1726Y-3.75
X6.2126Y-3.64
X6.2283Y-3.8425
X6.248Y-3.8214
X6.2717Y-3.189
X6.2913Y-3.8976
X6.3031Y-3.189
X6.305Y-2.655
X6.495Y-2.71
X6.51Y-2.405
X6.51Y-2.475
X6.5426Y-3.855
X6.5476Y-3.755
X6.58Y-2.735
X6.5859Y-3.855
X6.615Y-2.84
X6.67Y-2.56
X6.6726Y-3.635
X6.675Y-2.435
X6.7076Y-3.635
X6.725Y-2.645
X6.7602Y-3.5315
X6.77Y-3.09
X6.775Y-2.37
X6.7818Y-2.0922
X6.8089Y-3.64
X6.815Y-3.8346
X6.815Y-2.56
X6.8362Y-2.6752
X6.87Y-2.96
X6.87Y-3.15
X6.9173Y-3.5236
X6.94Y-2.555
X6.94Y-2.6574
X6.945Y-2.618
X6.96Y-2.26
X6.985Y-2.195
X7.0088Y-2.26
X7.0157Y-3.7362
X7.0236Y-3.4803
X7.025Y-1.935
X7.03Y-3.155
X7.0307Y-2.4056
X7.0591Y-3.8307
X7.07Y-2.405
X7.0846Y-2.715
X7.09Y-2.265
X7.0972Y-3.7583
X7.105Y-1.935
X7.1238Y-2.7185
X7.1322Y-3.6533
X7.1535Y-3.8425
X7.1767Y-2.5428
X7.1772Y-2.6215
X7.1772Y-3.8189
X7.1772Y-2.5822
X7.18Y-1.935
X7.185Y-3.155
X7.215Y-3.8858
X7.2159Y-2.6465
X7.26Y-1.935
X7.29Y-3.095
X7.335Y-1.935
X7.3896Y-2.7252
X7.3904Y-2.6859
X7.415Y-1.935
X7.4772Y-3.7633
X7.4843Y-3.8622
X7.51Y-2.725
X7.5276Y-3.8622
X7.53Y-2.78
X7.58Y-3.055
X7.6181Y-3.6102
X7.626Y-2.6515
X7.6537Y-3.6105
X7.6726Y-3.525
X7.7362Y-3.8346
X7.76Y-2.79
X7.7841Y-3.5988
X7.82Y-1.905
X7.8541Y-3.5988
X7.875Y-2.75
X7.9141Y-3.7288
X7.96Y-2.6
X7.97Y-2.78
X8.005Y-2.745
X8.005Y-2.815
X8.03Y-2.6
X8.04Y-1.905
X8.045Y-2.78
X8.06Y-2.155
X8.065Y-2.105
X8.0748Y-1.9528
X8.105Y-2.69
X8.105Y-4.04
X8.16Y-2.935
X8.165Y-2.61
X8.199Y-2.839
X8.25Y-3.7581
T3
X5.0837Y-1.6818
X5.0866Y-4.0551
X5.1114Y-1.615
X5.1114Y-1.7486
X5.1143Y-3.9883
X5.1143Y-4.1219
X5.1782Y-1.5873
X5.1782Y-1.7763
X5.1811Y-3.9606
X5.1811Y-4.1496
X5.245Y-1.615
X5.245Y-1.7486
X5.2479Y-3.9883
X5.2479Y-4.1219
X5.2727Y-1.6818
X5.2756Y-4.0551
X6.01Y-2.48
X6.125Y-2.375
X6.245Y-2.48
X6.295Y-3.45
X6.5Y-3.4567
X7.2087Y-3.4528
X7.4291Y-3.4488
X8.252Y-4.0551
X8.2756Y-1.6929
X8.2796Y-3.9883
X8.2796Y-4.1219
X8.3033Y-1.6261
X8.3033Y-1.7597
X8.3465Y-3.9606
X8.3465Y-4.1496
X8.3701Y-1.5984
X8.3701Y-1.7874
X8.4133Y-3.9883
X8.4133Y-4.1219
X8.4369Y-1.6261
X8.4369Y-1.7597
X8.4409Y-4.0551
X8.4646Y-1.6929
T4
X5.4631Y-1.67
X5.5616Y-1.67
X5.66Y-1.67
X5.9231Y-1.665
X6.0216Y-1.665
X6.12Y-1.665
X6.2126Y-4.0945
X6.311Y-4.0945
X6.3831Y-1.665
X6.4094Y-4.0945
X6.4816Y-1.665
X6.5079Y-4.0945
X6.58Y-1.665
X6.6063Y-4.0945
X6.6784Y-1.665
X6.7047Y-4.0945
X6.7769Y-1.665
X6.8753Y-1.665
X6.9737Y-1.665
X7.0721Y-1.665
X7.1378Y-4.0984
X7.2362Y-4.0984
X7.3346Y-4.0984
X7.3597Y-1.665
X7.4331Y-4.0984
X7.4581Y-1.665
X7.5315Y-4.0984
X7.5566Y-1.665
X7.6299Y-4.0984
X7.655Y-1.665
X8.38Y-1.9597
X8.38Y-2.0581
X8.38Y-2.1566
X8.38Y-2.255
X8.3842Y-2.5474
X8.3842Y-2.6458
X8.3842Y-2.7442
X8.3842Y-2.8426
X8.3842Y-3.085
X8.3842Y-3.1834
X8.3842Y-3.2819
X8.3842Y-3.3803
T5
X5.0978Y-1.9908
X5.0978Y-2.0892
X5.11Y-2.62
X5.11Y-2.7184
T6
X5.5401Y-2.2498
X5.5401Y-2.4348
X5.5401Y-2.6199
T7
X5.1782Y-1.6818
X5.1811Y-4.0551
X8.3465Y-4.0551
X8.3701Y-1.6929
T0
M30
