%TF.GenerationSoftware,KiCad,Pcbnew,(7.0.0)*%
%TF.CreationDate,2023-10-26T11:16:44+02:00*%
%TF.ProjectId,Kyttiludzinator,4b797474-696c-4756-947a-696e61746f72,rev?*%
%TF.SameCoordinates,Original*%
%TF.FileFunction,Legend,Bot*%
%TF.FilePolarity,Positive*%
%FSLAX46Y46*%
G04 Gerber Fmt 4.6, Leading zero omitted, Abs format (unit mm)*
G04 Created by KiCad (PCBNEW (7.0.0)) date 2023-10-26 11:16:44*
%MOMM*%
%LPD*%
G01*
G04 APERTURE LIST*
G04 APERTURE END LIST*
%TO.C,G\u002A\u002A\u002A*%
G36*
X145158652Y-80283548D02*
G01*
X145756400Y-80710713D01*
X146456390Y-81583590D01*
X146578708Y-81757921D01*
X147680947Y-83345421D01*
X147782812Y-81757921D01*
X147880278Y-80794233D01*
X148076783Y-80325484D01*
X148472761Y-80178193D01*
X148701891Y-80170421D01*
X149072757Y-80192780D01*
X149310020Y-80341211D01*
X149443517Y-80737744D01*
X149503088Y-81504408D01*
X149518571Y-82763233D01*
X149519105Y-83512526D01*
X149519105Y-86854631D01*
X148589373Y-86854631D01*
X148041106Y-86766868D01*
X147552821Y-86421972D01*
X146997476Y-85697530D01*
X146421542Y-84765815D01*
X145183443Y-82677000D01*
X145178906Y-84765815D01*
X145160267Y-85905678D01*
X145069379Y-86531098D01*
X144844349Y-86795975D01*
X144423283Y-86854207D01*
X144338842Y-86854631D01*
X143503316Y-86854631D01*
X143503316Y-83512526D01*
X143503316Y-80170421D01*
X144489892Y-80170421D01*
X145158652Y-80283548D01*
G37*
G36*
X139938846Y-80186208D02*
G01*
X140690802Y-80258195D01*
X141051651Y-80423320D01*
X141159911Y-80718521D01*
X141163842Y-80838842D01*
X141065439Y-81256552D01*
X140656835Y-81454075D01*
X139767936Y-81507008D01*
X139659895Y-81507263D01*
X138668624Y-81572870D01*
X138217099Y-81795951D01*
X138155947Y-82008579D01*
X138376696Y-82357159D01*
X139108458Y-82500796D01*
X139492790Y-82509894D01*
X140367400Y-82565947D01*
X140753944Y-82792504D01*
X140829632Y-83178315D01*
X140717525Y-83615621D01*
X140264411Y-83808893D01*
X139492790Y-83846736D01*
X138631485Y-83892341D01*
X138248666Y-84107448D01*
X138156425Y-84609500D01*
X138155947Y-84682263D01*
X138218283Y-85197849D01*
X138524685Y-85442128D01*
X139254248Y-85514598D01*
X139659895Y-85517789D01*
X140599743Y-85561524D01*
X141044169Y-85743126D01*
X141163268Y-86138192D01*
X141163842Y-86186210D01*
X141104640Y-86527965D01*
X140834688Y-86728487D01*
X140215469Y-86824714D01*
X139108464Y-86853583D01*
X138657263Y-86854631D01*
X136150684Y-86854631D01*
X136150684Y-83512526D01*
X136150684Y-80170421D01*
X138657263Y-80170421D01*
X139938846Y-80186208D01*
G37*
G36*
X162780149Y-80188454D02*
G01*
X163484493Y-80269778D01*
X163806637Y-80455227D01*
X163889505Y-80785636D01*
X163890158Y-80838842D01*
X163791755Y-81256552D01*
X163383151Y-81454075D01*
X162494252Y-81507008D01*
X162386211Y-81507263D01*
X161394940Y-81572870D01*
X160943415Y-81795951D01*
X160882263Y-82008579D01*
X161079086Y-82339002D01*
X161748327Y-82489510D01*
X162386211Y-82509894D01*
X163326058Y-82553629D01*
X163770485Y-82735231D01*
X163889584Y-83130297D01*
X163890158Y-83178315D01*
X163793372Y-83593540D01*
X163390147Y-83791491D01*
X162511187Y-83846266D01*
X162362966Y-83846736D01*
X161431776Y-83878575D01*
X161005060Y-84031632D01*
X160919780Y-84392222D01*
X160942571Y-84598710D01*
X161127537Y-85093412D01*
X161623675Y-85346460D01*
X162469763Y-85453453D01*
X163390517Y-85579865D01*
X163808195Y-85839355D01*
X163890158Y-86205426D01*
X163822022Y-86547141D01*
X163522852Y-86742938D01*
X162850507Y-86832264D01*
X161662846Y-86854561D01*
X161550684Y-86854631D01*
X159211211Y-86854631D01*
X159211211Y-83512526D01*
X159211211Y-80170421D01*
X161550684Y-80170421D01*
X162780149Y-80188454D01*
G37*
G36*
X155497923Y-80036169D02*
G01*
X156374064Y-80225756D01*
X156769639Y-80525115D01*
X156870522Y-81095436D01*
X156871737Y-81227526D01*
X156817119Y-81883829D01*
X156564270Y-82004064D01*
X156225287Y-81853232D01*
X155488860Y-81603986D01*
X154657344Y-81511718D01*
X153953889Y-81573024D01*
X153601646Y-81784502D01*
X153602586Y-81893231D01*
X153976281Y-82213388D01*
X154769256Y-82571436D01*
X155185805Y-82708680D01*
X156346382Y-83156559D01*
X156971284Y-83720759D01*
X157192989Y-84536527D01*
X157200830Y-84765815D01*
X156918862Y-85791630D01*
X156088527Y-86482833D01*
X154757325Y-86807681D01*
X154114500Y-86828246D01*
X153035197Y-86782644D01*
X152207000Y-86695136D01*
X151942132Y-86633290D01*
X151624248Y-86207334D01*
X151524369Y-85621287D01*
X151616213Y-85028890D01*
X151971785Y-84964558D01*
X152109237Y-85013647D01*
X152827057Y-85218063D01*
X153813490Y-85407752D01*
X153947395Y-85427620D01*
X154796948Y-85486616D01*
X155156973Y-85312096D01*
X155200684Y-85100154D01*
X154880468Y-84673562D01*
X153975760Y-84291468D01*
X153707351Y-84218483D01*
X152467432Y-83694503D01*
X151771039Y-82963392D01*
X151572061Y-82132853D01*
X151824390Y-81310583D01*
X152481915Y-80604283D01*
X153498528Y-80121653D01*
X154828119Y-79970393D01*
X155497923Y-80036169D01*
G37*
G36*
X166456009Y-83834577D02*
G01*
X168265504Y-83834577D01*
X168488744Y-84135852D01*
X168903316Y-84180947D01*
X169444432Y-84075884D01*
X169566619Y-83930289D01*
X169397881Y-83463239D01*
X169232409Y-83178315D01*
X168917808Y-82845037D01*
X168618802Y-83111438D01*
X168574223Y-83178315D01*
X168265504Y-83834577D01*
X166456009Y-83834577D01*
X166472075Y-83790715D01*
X166706604Y-83178315D01*
X167237210Y-81838668D01*
X167624206Y-81004345D01*
X167961253Y-80555778D01*
X168342012Y-80373399D01*
X168860144Y-80337642D01*
X168931887Y-80337526D01*
X169471665Y-80363711D01*
X169861612Y-80522295D01*
X170194740Y-80933317D01*
X170564062Y-81716816D01*
X171062591Y-82992834D01*
X171133069Y-83178315D01*
X171614061Y-84484105D01*
X171988648Y-85575232D01*
X172200921Y-86285402D01*
X172228614Y-86436868D01*
X171946400Y-86743304D01*
X171242790Y-86854631D01*
X170508894Y-86749590D01*
X170250502Y-86358755D01*
X170240158Y-86186210D01*
X170128052Y-85748905D01*
X169674938Y-85555633D01*
X168903316Y-85517789D01*
X168028705Y-85573842D01*
X167642161Y-85800399D01*
X167566474Y-86186210D01*
X167408912Y-86675474D01*
X166822660Y-86847735D01*
X166563842Y-86854631D01*
X165833055Y-86731975D01*
X165582488Y-86436868D01*
X165707140Y-85954743D01*
X166022710Y-85017499D01*
X166456009Y-83834577D01*
G37*
G36*
X170549007Y-68974368D02*
G01*
X171577000Y-68974368D01*
X171744105Y-69141473D01*
X171911211Y-68974368D01*
X171744105Y-68807263D01*
X171577000Y-68974368D01*
X170549007Y-68974368D01*
X170857378Y-68833136D01*
X170936975Y-68792776D01*
X171857633Y-68337707D01*
X172323765Y-68180304D01*
X172471758Y-68305815D01*
X172448505Y-68629290D01*
X172275550Y-68987873D01*
X171798782Y-69475347D01*
X170942666Y-70154166D01*
X169631669Y-71086785D01*
X168736211Y-71698810D01*
X166897570Y-72743978D01*
X164674355Y-73693549D01*
X162222989Y-74508664D01*
X159699892Y-75150463D01*
X157261486Y-75580088D01*
X155064193Y-75758679D01*
X153264433Y-75647378D01*
X153028316Y-75601064D01*
X150915689Y-74896864D01*
X149362112Y-73830798D01*
X148357341Y-72391268D01*
X147891129Y-70566676D01*
X147853085Y-69742939D01*
X148069684Y-67635239D01*
X148675183Y-65847974D01*
X149458420Y-64694227D01*
X150042092Y-63989538D01*
X150076994Y-63614476D01*
X149529732Y-63473024D01*
X149029128Y-63459894D01*
X147343169Y-63159135D01*
X145888887Y-62322839D01*
X144876705Y-61113997D01*
X144344154Y-59878829D01*
X144228964Y-58676425D01*
X144542101Y-57324407D01*
X145193811Y-55839726D01*
X146142011Y-54328947D01*
X147462003Y-52753856D01*
X149037138Y-51207248D01*
X150750764Y-49781917D01*
X152486230Y-48570657D01*
X154126886Y-47666265D01*
X155556080Y-47161534D01*
X156195712Y-47087812D01*
X156804522Y-47101668D01*
X156998358Y-47183230D01*
X156724169Y-47401108D01*
X155928908Y-47823911D01*
X155430843Y-48077027D01*
X152964551Y-49507719D01*
X150798397Y-51119314D01*
X149001226Y-52836798D01*
X147641887Y-54585156D01*
X146789225Y-56289373D01*
X146511211Y-57795774D01*
X146593040Y-58384779D01*
X146943908Y-58796679D01*
X147721889Y-59180602D01*
X148156506Y-59347983D01*
X150213835Y-59827305D01*
X152083480Y-59917690D01*
X153186724Y-59869957D01*
X154071066Y-59731344D01*
X154936057Y-59434653D01*
X155981249Y-58912683D01*
X157296973Y-58162052D01*
X158641602Y-57407192D01*
X159866601Y-56773068D01*
X160797938Y-56347217D01*
X161140394Y-56228816D01*
X162052000Y-56007176D01*
X161383986Y-56760279D01*
X160695034Y-57378579D01*
X159711012Y-58086389D01*
X159211617Y-58397822D01*
X158365692Y-58912170D01*
X158043826Y-59190161D01*
X158187352Y-59322878D01*
X158576892Y-59383243D01*
X159391259Y-59318926D01*
X160488814Y-59042046D01*
X161083471Y-58830122D01*
X162417642Y-58297412D01*
X163888042Y-57710886D01*
X164459735Y-57483025D01*
X165621324Y-57099029D01*
X166293703Y-57055978D01*
X166441225Y-57350669D01*
X166291132Y-57647581D01*
X165786905Y-58100084D01*
X164834905Y-58728914D01*
X163599912Y-59442875D01*
X162246705Y-60150774D01*
X160940063Y-60761415D01*
X159986710Y-61136693D01*
X158741674Y-61584175D01*
X157594136Y-62032878D01*
X157017681Y-62282597D01*
X155996929Y-62653900D01*
X154794138Y-62952089D01*
X154576920Y-62990203D01*
X153142487Y-63526393D01*
X152088186Y-64595282D01*
X151440392Y-66162427D01*
X151258154Y-67323430D01*
X151321061Y-69009537D01*
X151855915Y-70302458D01*
X152909192Y-71254470D01*
X154527369Y-71917853D01*
X155554470Y-72156051D01*
X158621212Y-72502553D01*
X161438448Y-72297948D01*
X163723053Y-71691354D01*
X166721507Y-70591326D01*
X169092388Y-69641491D01*
X169819279Y-69308579D01*
X170908579Y-69308579D01*
X171075684Y-69475684D01*
X171242790Y-69308579D01*
X171075684Y-69141473D01*
X170908579Y-69308579D01*
X169819279Y-69308579D01*
X170549007Y-68974368D01*
G37*
%TD*%
M02*
