%TF.GenerationSoftware,KiCad,Pcbnew,(7.0.0)*%
%TF.CreationDate,2023-10-26T11:16:44+02:00*%
%TF.ProjectId,Kyttiludzinator,4b797474-696c-4756-947a-696e61746f72,rev?*%
%TF.SameCoordinates,Original*%
%TF.FileFunction,Copper,L1,Top*%
%TF.FilePolarity,Positive*%
%FSLAX46Y46*%
G04 Gerber Fmt 4.6, Leading zero omitted, Abs format (unit mm)*
G04 Created by KiCad (PCBNEW (7.0.0)) date 2023-10-26 11:16:44*
%MOMM*%
%LPD*%
G01*
G04 APERTURE LIST*
G04 Aperture macros list*
%AMRoundRect*
0 Rectangle with rounded corners*
0 $1 Rounding radius*
0 $2 $3 $4 $5 $6 $7 $8 $9 X,Y pos of 4 corners*
0 Add a 4 corners polygon primitive as box body*
4,1,4,$2,$3,$4,$5,$6,$7,$8,$9,$2,$3,0*
0 Add four circle primitives for the rounded corners*
1,1,$1+$1,$2,$3*
1,1,$1+$1,$4,$5*
1,1,$1+$1,$6,$7*
1,1,$1+$1,$8,$9*
0 Add four rect primitives between the rounded corners*
20,1,$1+$1,$2,$3,$4,$5,0*
20,1,$1+$1,$4,$5,$6,$7,0*
20,1,$1+$1,$6,$7,$8,$9,0*
20,1,$1+$1,$8,$9,$2,$3,0*%
G04 Aperture macros list end*
%TA.AperFunction,ComponentPad*%
%ADD10RoundRect,0.250000X0.725000X-0.600000X0.725000X0.600000X-0.725000X0.600000X-0.725000X-0.600000X0*%
%TD*%
%TA.AperFunction,ComponentPad*%
%ADD11O,1.950000X1.700000*%
%TD*%
%TA.AperFunction,SMDPad,CuDef*%
%ADD12RoundRect,0.237500X0.237500X-0.250000X0.237500X0.250000X-0.237500X0.250000X-0.237500X-0.250000X0*%
%TD*%
%TA.AperFunction,SMDPad,CuDef*%
%ADD13RoundRect,0.237500X-0.300000X-0.237500X0.300000X-0.237500X0.300000X0.237500X-0.300000X0.237500X0*%
%TD*%
%TA.AperFunction,SMDPad,CuDef*%
%ADD14RoundRect,0.237500X-0.237500X0.287500X-0.237500X-0.287500X0.237500X-0.287500X0.237500X0.287500X0*%
%TD*%
%TA.AperFunction,SMDPad,CuDef*%
%ADD15RoundRect,0.237500X0.237500X-0.300000X0.237500X0.300000X-0.237500X0.300000X-0.237500X-0.300000X0*%
%TD*%
%TA.AperFunction,SMDPad,CuDef*%
%ADD16RoundRect,0.237500X-0.237500X0.250000X-0.237500X-0.250000X0.237500X-0.250000X0.237500X0.250000X0*%
%TD*%
%TA.AperFunction,SMDPad,CuDef*%
%ADD17RoundRect,0.150000X0.820000X0.150000X-0.820000X0.150000X-0.820000X-0.150000X0.820000X-0.150000X0*%
%TD*%
%TA.AperFunction,ComponentPad*%
%ADD18C,0.500000*%
%TD*%
%TA.AperFunction,SMDPad,CuDef*%
%ADD19R,2.620000X3.510000*%
%TD*%
%TA.AperFunction,SMDPad,CuDef*%
%ADD20RoundRect,0.250000X-0.450000X0.350000X-0.450000X-0.350000X0.450000X-0.350000X0.450000X0.350000X0*%
%TD*%
%TA.AperFunction,ComponentPad*%
%ADD21R,1.000000X1.000000*%
%TD*%
%TA.AperFunction,ComponentPad*%
%ADD22C,0.800000*%
%TD*%
%TA.AperFunction,ComponentPad*%
%ADD23C,6.400000*%
%TD*%
%TA.AperFunction,SMDPad,CuDef*%
%ADD24RoundRect,0.237500X0.300000X0.237500X-0.300000X0.237500X-0.300000X-0.237500X0.300000X-0.237500X0*%
%TD*%
%TA.AperFunction,SMDPad,CuDef*%
%ADD25RoundRect,0.237500X-0.237500X0.300000X-0.237500X-0.300000X0.237500X-0.300000X0.237500X0.300000X0*%
%TD*%
%TA.AperFunction,SMDPad,CuDef*%
%ADD26RoundRect,0.237500X0.250000X0.237500X-0.250000X0.237500X-0.250000X-0.237500X0.250000X-0.237500X0*%
%TD*%
%TA.AperFunction,SMDPad,CuDef*%
%ADD27R,1.200000X0.600000*%
%TD*%
%TA.AperFunction,ComponentPad*%
%ADD28RoundRect,0.250000X-0.750000X0.600000X-0.750000X-0.600000X0.750000X-0.600000X0.750000X0.600000X0*%
%TD*%
%TA.AperFunction,ComponentPad*%
%ADD29O,2.000000X1.700000*%
%TD*%
%TA.AperFunction,SMDPad,CuDef*%
%ADD30R,1.700000X0.900000*%
%TD*%
%TA.AperFunction,ComponentPad*%
%ADD31RoundRect,0.250000X0.600000X0.725000X-0.600000X0.725000X-0.600000X-0.725000X0.600000X-0.725000X0*%
%TD*%
%TA.AperFunction,ComponentPad*%
%ADD32O,1.700000X1.950000*%
%TD*%
%TA.AperFunction,SMDPad,CuDef*%
%ADD33RoundRect,0.250000X-0.625000X0.400000X-0.625000X-0.400000X0.625000X-0.400000X0.625000X0.400000X0*%
%TD*%
%TA.AperFunction,SMDPad,CuDef*%
%ADD34R,0.300000X0.950000*%
%TD*%
%TA.AperFunction,SMDPad,CuDef*%
%ADD35R,0.950000X0.300000*%
%TD*%
%TA.AperFunction,SMDPad,CuDef*%
%ADD36R,2.990000X2.990000*%
%TD*%
%TA.AperFunction,SMDPad,CuDef*%
%ADD37RoundRect,0.237500X0.237500X-0.287500X0.237500X0.287500X-0.237500X0.287500X-0.237500X-0.287500X0*%
%TD*%
%TA.AperFunction,SMDPad,CuDef*%
%ADD38R,0.450000X1.150000*%
%TD*%
%TA.AperFunction,SMDPad,CuDef*%
%ADD39RoundRect,0.237500X-0.287500X-0.237500X0.287500X-0.237500X0.287500X0.237500X-0.287500X0.237500X0*%
%TD*%
%TA.AperFunction,SMDPad,CuDef*%
%ADD40R,1.200000X0.400000*%
%TD*%
%TA.AperFunction,SMDPad,CuDef*%
%ADD41R,0.900000X1.700000*%
%TD*%
%TA.AperFunction,SMDPad,CuDef*%
%ADD42RoundRect,0.237500X0.287500X0.237500X-0.287500X0.237500X-0.287500X-0.237500X0.287500X-0.237500X0*%
%TD*%
%TA.AperFunction,SMDPad,CuDef*%
%ADD43R,1.200000X1.400000*%
%TD*%
%TA.AperFunction,SMDPad,CuDef*%
%ADD44RoundRect,0.237500X-0.250000X-0.237500X0.250000X-0.237500X0.250000X0.237500X-0.250000X0.237500X0*%
%TD*%
%TA.AperFunction,ComponentPad*%
%ADD45RoundRect,0.250000X-0.600000X-0.725000X0.600000X-0.725000X0.600000X0.725000X-0.600000X0.725000X0*%
%TD*%
%TA.AperFunction,SMDPad,CuDef*%
%ADD46R,2.500000X2.200000*%
%TD*%
%TA.AperFunction,SMDPad,CuDef*%
%ADD47R,1.120000X1.220000*%
%TD*%
%TA.AperFunction,SMDPad,CuDef*%
%ADD48R,1.475000X0.300000*%
%TD*%
%TA.AperFunction,SMDPad,CuDef*%
%ADD49R,0.300000X1.475000*%
%TD*%
%TA.AperFunction,SMDPad,CuDef*%
%ADD50R,2.400000X0.740000*%
%TD*%
%TA.AperFunction,SMDPad,CuDef*%
%ADD51RoundRect,0.250000X-0.375000X-0.625000X0.375000X-0.625000X0.375000X0.625000X-0.375000X0.625000X0*%
%TD*%
%TA.AperFunction,ComponentPad*%
%ADD52C,3.000000*%
%TD*%
%TA.AperFunction,ViaPad*%
%ADD53C,0.800000*%
%TD*%
%TA.AperFunction,Conductor*%
%ADD54C,0.500000*%
%TD*%
%TA.AperFunction,Conductor*%
%ADD55C,0.250000*%
%TD*%
%TA.AperFunction,Conductor*%
%ADD56C,1.000000*%
%TD*%
%TA.AperFunction,Conductor*%
%ADD57C,0.400000*%
%TD*%
G04 APERTURE END LIST*
D10*
%TO.P,J504,1,Pin_1*%
%TO.N,Moustache_1*%
X212958000Y-85859000D03*
D11*
%TO.P,J504,2,Pin_2*%
%TO.N,+3.3V*%
X212957999Y-83358999D03*
%TO.P,J504,3,Pin_3*%
%TO.N,Moustache_1*%
X212957999Y-80858999D03*
%TO.P,J504,4,Pin_4*%
%TO.N,+3.3V*%
X212957999Y-78358999D03*
%TD*%
D12*
%TO.P,R205,1*%
%TO.N,Net-(D202-K)*%
X188341000Y-51990000D03*
%TO.P,R205,2*%
%TO.N,GND*%
X188341000Y-50165000D03*
%TD*%
D13*
%TO.P,C308,1*%
%TO.N,+5V*%
X145568500Y-86106000D03*
%TO.P,C308,2*%
%TO.N,GND*%
X147293500Y-86106000D03*
%TD*%
D14*
%TO.P,D205,1,K*%
%TO.N,Net-(D205-K)*%
X184404000Y-54243000D03*
%TO.P,D205,2,A*%
%TO.N,/STM32G070RBT6/WHITE*%
X184404000Y-55993000D03*
%TD*%
D15*
%TO.P,C401,1*%
%TO.N,+5V*%
X157800000Y-95223500D03*
%TO.P,C401,2*%
%TO.N,GND*%
X157800000Y-93498500D03*
%TD*%
D16*
%TO.P,R202,1*%
%TO.N,Net-(IC201-PA0)*%
X187071000Y-79732500D03*
%TO.P,R202,2*%
%TO.N,ADC_2*%
X187071000Y-81557500D03*
%TD*%
D17*
%TO.P,U401,1,OUT1*%
%TO.N,/Drivers_moteurs/Motor1+*%
X188441000Y-98044000D03*
%TO.P,U401,2,VM*%
%TO.N,/Drivers_moteurs/M1_VM*%
X188441000Y-96774000D03*
%TO.P,U401,3,VDD*%
%TO.N,+5V*%
X188441000Y-95504000D03*
%TO.P,U401,4,FWD*%
%TO.N,PWM_MOT1_CH1*%
X188441000Y-94234000D03*
%TO.P,U401,5,REV*%
%TO.N,PWM_MOT1_CH2*%
X183481000Y-94234000D03*
%TO.P,U401,6,VREF*%
%TO.N,+5V*%
X183481000Y-95504000D03*
%TO.P,U401,7,OUT2*%
%TO.N,/Drivers_moteurs/Motor1-*%
X183481000Y-96774000D03*
%TO.P,U401,8,GND*%
%TO.N,GND*%
X183481000Y-98044000D03*
D18*
%TO.P,U401,9*%
%TO.N,N/C*%
X186661000Y-97139000D03*
X186661000Y-96139000D03*
X186661000Y-95139000D03*
D19*
X185960999Y-96138999D03*
D18*
X185261000Y-97139000D03*
X185261000Y-96139000D03*
X185261000Y-95139000D03*
%TD*%
D20*
%TO.P,R303,1*%
%TO.N,Net-(U301-BST)*%
X135636000Y-91305500D03*
%TO.P,R303,2*%
%TO.N,Net-(C304-Pad2)*%
X135636000Y-93305500D03*
%TD*%
D21*
%TO.P,REF\u002A\u002A,*%
%TO.N,+3.3V*%
X158622999Y-62991999D03*
%TD*%
D22*
%TO.P,REFe,1*%
%TO.N,N/C*%
X210200000Y-43000000D03*
X210902944Y-41302944D03*
X210902944Y-44697056D03*
X212600000Y-40600000D03*
D23*
%TO.N,GND*%
X212600000Y-43000000D03*
D22*
%TO.N,N/C*%
X212600000Y-45400000D03*
X214297056Y-41302944D03*
X214297056Y-44697056D03*
X215000000Y-43000000D03*
%TD*%
D24*
%TO.P,C307,1*%
%TO.N,+5V*%
X147291000Y-87997500D03*
%TO.P,C307,2*%
%TO.N,GND*%
X145566000Y-87997500D03*
%TD*%
D15*
%TO.P,C402,1*%
%TO.N,+5V*%
X181229000Y-95477500D03*
%TO.P,C402,2*%
%TO.N,GND*%
X181229000Y-93752500D03*
%TD*%
D16*
%TO.P,R305,1*%
%TO.N,GND*%
X141605000Y-91647000D03*
%TO.P,R305,2*%
%TO.N,Net-(C305-Pad1)*%
X141605000Y-93472000D03*
%TD*%
D25*
%TO.P,C304,1*%
%TO.N,Net-(U301-SW)*%
X133731000Y-91570000D03*
%TO.P,C304,2*%
%TO.N,Net-(C304-Pad2)*%
X133731000Y-93295000D03*
%TD*%
D13*
%TO.P,C206,1*%
%TO.N,GND*%
X185192500Y-77597000D03*
%TO.P,C206,2*%
%TO.N,Net-(IC201-PA0)*%
X186917500Y-77597000D03*
%TD*%
D26*
%TO.P,R402,1*%
%TO.N,Net-(D402-K)*%
X179756500Y-89600000D03*
%TO.P,R402,2*%
%TO.N,GND*%
X177931500Y-89600000D03*
%TD*%
D24*
%TO.P,C405,1*%
%TO.N,/Drivers_moteurs/REF*%
X199662500Y-97000000D03*
%TO.P,C405,2*%
%TO.N,GND*%
X197937500Y-97000000D03*
%TD*%
D27*
%TO.P,PS301,1,VIN*%
%TO.N,+5V*%
X149623499Y-82475499D03*
%TO.P,PS301,2,GND*%
%TO.N,GND*%
X149623499Y-83425499D03*
%TO.P,PS301,3,EN*%
%TO.N,Net-(PS301-EN)*%
X149623499Y-84375499D03*
%TO.P,PS301,4,NC*%
%TO.N,unconnected-(PS301-NC-Pad4)*%
X152123499Y-84375499D03*
%TO.P,PS301,5,VOUT*%
%TO.N,+3.3V*%
X152123499Y-82475499D03*
%TD*%
D28*
%TO.P,Alim_charger301,1,Pin_1*%
%TO.N,GND*%
X129485000Y-50566000D03*
D29*
%TO.P,Alim_charger301,2,Pin_2*%
%TO.N,Net-(Alim_charger301-Pin_2)*%
X129484999Y-53065999D03*
%TD*%
D21*
%TO.P,REF\u002A\u002A,*%
%TO.N,PWM_MOT2_CH1*%
X165099999Y-87799999D03*
%TD*%
D24*
%TO.P,C410,1*%
%TO.N,/Drivers_moteurs/Motor1-*%
X181200000Y-98100000D03*
%TO.P,C410,2*%
%TO.N,GND*%
X179475000Y-98100000D03*
%TD*%
D30*
%TO.P,SW202,1,1*%
%TO.N,/STM32G070RBT6/BUTTON_1*%
X178561999Y-75769999D03*
%TO.P,SW202,2,2*%
%TO.N,GND*%
X178561999Y-79169999D03*
%TD*%
D31*
%TO.P,J502,1,Pin_1*%
%TO.N,Bordure_1*%
X155448000Y-42291000D03*
D32*
%TO.P,J502,2,Pin_2*%
%TO.N,+5V*%
X152947999Y-42290999D03*
%TO.P,J502,3,Pin_3*%
%TO.N,GND*%
X150447999Y-42290999D03*
%TD*%
D16*
%TO.P,R304,1*%
%TO.N,Net-(U301-FB)*%
X139827000Y-91670500D03*
%TO.P,R304,2*%
%TO.N,Net-(C305-Pad1)*%
X139827000Y-93495500D03*
%TD*%
D33*
%TO.P,R406,1*%
%TO.N,+BATT*%
X169900000Y-93200000D03*
%TO.P,R406,2*%
%TO.N,/Drivers_moteurs/In_2-*%
X169900000Y-96300000D03*
%TD*%
D24*
%TO.P,C204,1*%
%TO.N,GND*%
X191489500Y-77597000D03*
%TO.P,C204,2*%
%TO.N,Net-(IC201-PA1)*%
X189764500Y-77597000D03*
%TD*%
%TO.P,C303,1*%
%TO.N,+BATT*%
X139163000Y-83933500D03*
%TO.P,C303,2*%
%TO.N,GND*%
X137438000Y-83933500D03*
%TD*%
D16*
%TO.P,R404,1*%
%TO.N,+5V*%
X155575000Y-66270500D03*
%TO.P,R404,2*%
%TO.N,GND*%
X155575000Y-68095500D03*
%TD*%
D34*
%TO.P,IC501,1,MOSI*%
%TO.N,SPI1_MOSI*%
X202067999Y-72781999D03*
%TO.P,IC501,2,GND_1*%
%TO.N,GND*%
X202567999Y-72781999D03*
%TO.P,IC501,3,GND_2*%
X203067999Y-72781999D03*
%TO.P,IC501,4,GND_3*%
X203567999Y-72781999D03*
%TO.P,IC501,5,GND_4*%
X204067999Y-72781999D03*
%TO.P,IC501,6,FL_1*%
%TO.N,unconnected-(IC501-FL_1-Pad6)*%
X204567999Y-72781999D03*
D35*
%TO.P,IC501,7,GND_5*%
%TO.N,GND*%
X205467999Y-71881999D03*
%TO.P,IC501,8,VDDIO*%
%TO.N,+5V*%
X205467999Y-71381999D03*
%TO.P,IC501,9,MISO*%
%TO.N,SPI1_MISO*%
X205467999Y-70881999D03*
%TO.P,IC501,10,REGOUT*%
%TO.N,Net-(IC501-REGOUT)*%
X205467999Y-70381999D03*
%TO.P,IC501,11,VDD*%
%TO.N,+5V*%
X205467999Y-69881999D03*
%TO.P,IC501,12,ODR*%
%TO.N,GND*%
X205467999Y-69381999D03*
D34*
%TO.P,IC501,13,FL_2*%
%TO.N,unconnected-(IC501-FL_2-Pad13)*%
X204567999Y-68481999D03*
%TO.P,IC501,14,GND_6*%
%TO.N,GND*%
X204067999Y-68481999D03*
%TO.P,IC501,15,GND_7*%
X203567999Y-68481999D03*
%TO.P,IC501,16,GND_8*%
X203067999Y-68481999D03*
%TO.P,IC501,17,GND_9*%
X202567999Y-68481999D03*
%TO.P,IC501,18,RESETN*%
%TO.N,+5V*%
X202067999Y-68481999D03*
D35*
%TO.P,IC501,19,FL_3*%
%TO.N,unconnected-(IC501-FL_3-Pad19)*%
X201167999Y-69381999D03*
%TO.P,IC501,20,VPP*%
%TO.N,+5V*%
X201167999Y-69881999D03*
%TO.P,IC501,21,FL_4*%
%TO.N,unconnected-(IC501-FL_4-Pad21)*%
X201167999Y-70381999D03*
%TO.P,IC501,22,GND_10*%
%TO.N,GND*%
X201167999Y-70881999D03*
%TO.P,IC501,23,NCS*%
%TO.N,SPI1_CS*%
X201167999Y-71381999D03*
%TO.P,IC501,24,SCLK*%
%TO.N,SPI1_SCK*%
X201167999Y-71881999D03*
D36*
%TO.P,IC501,25,THERMAL_PAD*%
%TO.N,GND*%
X203317999Y-70631999D03*
%TD*%
D22*
%TO.P,REF\u002A\u002A,1*%
%TO.N,N/C*%
X209600000Y-103000000D03*
X210302944Y-101302944D03*
X210302944Y-104697056D03*
X212000000Y-100600000D03*
D23*
%TO.N,GND*%
X212000000Y-103000000D03*
D22*
%TO.N,N/C*%
X212000000Y-105400000D03*
X213697056Y-101302944D03*
X213697056Y-104697056D03*
X214400000Y-103000000D03*
%TD*%
D24*
%TO.P,C309,1*%
%TO.N,+3.3V*%
X152246500Y-80800000D03*
%TO.P,C309,2*%
%TO.N,GND*%
X150521500Y-80800000D03*
%TD*%
%TO.P,C403,1*%
%TO.N,+3.3V*%
X175715000Y-92583000D03*
%TO.P,C403,2*%
%TO.N,GND*%
X173990000Y-92583000D03*
%TD*%
D37*
%TO.P,D404,1,K*%
%TO.N,+BATT*%
X152654000Y-66661000D03*
%TO.P,D404,2,A*%
X152654000Y-64911000D03*
%TD*%
D16*
%TO.P,R302,1*%
%TO.N,Net-(U301-EN{slash}SYNC)*%
X138049000Y-91647000D03*
%TO.P,R302,2*%
%TO.N,+BATT*%
X138049000Y-93472000D03*
%TD*%
D13*
%TO.P,C408,1*%
%TO.N,GND*%
X174137500Y-97500000D03*
%TO.P,C408,2*%
%TO.N,/Drivers_moteurs/REF*%
X175862500Y-97500000D03*
%TD*%
D31*
%TO.P,J503,1,Pin_1*%
%TO.N,unconnected-(J503-Pin_1-Pad1)*%
X179632000Y-42291000D03*
D32*
%TO.P,J503,2,Pin_2*%
%TO.N,LIDAR_M*%
X177131999Y-42290999D03*
%TO.P,J503,3,Pin_3*%
%TO.N,LIDAR_DEV*%
X174631999Y-42290999D03*
%TO.P,J503,4,Pin_4*%
%TO.N,LIDAR_PWM*%
X172131999Y-42290999D03*
%TO.P,J503,5,Pin_5*%
%TO.N,GND*%
X169631999Y-42290999D03*
%TO.P,J503,6,Pin_6*%
%TO.N,LIDAR_RX*%
X167131999Y-42290999D03*
%TO.P,J503,7,Pin_7*%
%TO.N,LIDAR_TX*%
X164631999Y-42290999D03*
%TO.P,J503,8,Pin_8*%
%TO.N,+5V*%
X162131999Y-42290999D03*
%TD*%
D28*
%TO.P,Alim_batterie301,1,Pin_1*%
%TO.N,GND*%
X129794000Y-66548000D03*
D29*
%TO.P,Alim_batterie301,2,Pin_2*%
%TO.N,Net-(Alim_batterie301-Pin_2)*%
X129793999Y-69047999D03*
%TD*%
D38*
%TO.P,U301,1,PG*%
%TO.N,Net-(U301-PG)*%
X139361499Y-86032499D03*
%TO.P,U301,2,IN*%
%TO.N,+BATT*%
X138711499Y-86032499D03*
%TO.P,U301,3,SW*%
%TO.N,Net-(U301-SW)*%
X138061499Y-86032499D03*
%TO.P,U301,4,GND*%
%TO.N,GND*%
X137411499Y-86032499D03*
%TO.P,U301,5,BST*%
%TO.N,Net-(U301-BST)*%
X137411499Y-88632499D03*
%TO.P,U301,6,EN/SYNC*%
%TO.N,Net-(U301-EN{slash}SYNC)*%
X138061499Y-88632499D03*
%TO.P,U301,7,VCC*%
%TO.N,Net-(U301-VCC)*%
X138711499Y-88632499D03*
%TO.P,U301,8,FB*%
%TO.N,Net-(U301-FB)*%
X139361499Y-88632499D03*
%TD*%
D16*
%TO.P,R407,1*%
%TO.N,+3.3V*%
X205867000Y-95457000D03*
%TO.P,R407,2*%
%TO.N,/Drivers_moteurs/REF*%
X205867000Y-97282000D03*
%TD*%
%TO.P,R201,1*%
%TO.N,Net-(IC201-PA1)*%
X189738000Y-79732500D03*
%TO.P,R201,2*%
%TO.N,ADC_1*%
X189738000Y-81557500D03*
%TD*%
D14*
%TO.P,D204,1,K*%
%TO.N,Net-(D204-K)*%
X182372000Y-54257000D03*
%TO.P,D204,2,A*%
%TO.N,/STM32G070RBT6/BLUE*%
X182372000Y-56007000D03*
%TD*%
D13*
%TO.P,C305,1*%
%TO.N,Net-(C305-Pad1)*%
X145569000Y-93458500D03*
%TO.P,C305,2*%
%TO.N,+5V*%
X147294000Y-93458500D03*
%TD*%
D39*
%TO.P,L201,1*%
%TO.N,+3.3V*%
X166257000Y-62865000D03*
%TO.P,L201,2*%
%TO.N,/STM32G070RBT6/VREF*%
X168007000Y-62865000D03*
%TD*%
D25*
%TO.P,C407,1*%
%TO.N,/Drivers_moteurs/In_2-*%
X172200000Y-94737500D03*
%TO.P,C407,2*%
%TO.N,GND*%
X172200000Y-96462500D03*
%TD*%
D12*
%TO.P,R203,1*%
%TO.N,/STM32G070RBT6/OSC_OUT*%
X171577000Y-71270500D03*
%TO.P,R203,2*%
X171577000Y-69445500D03*
%TD*%
D22*
%TO.P,REF\u002A\u002A,1*%
%TO.N,N/C*%
X129200000Y-103000000D03*
X129902944Y-101302944D03*
X129902944Y-104697056D03*
X131600000Y-100600000D03*
D23*
%TO.N,GND*%
X131600000Y-103000000D03*
D22*
%TO.N,N/C*%
X131600000Y-105400000D03*
X133297056Y-101302944D03*
X133297056Y-104697056D03*
X134000000Y-103000000D03*
%TD*%
D33*
%TO.P,R405,1*%
%TO.N,+BATT*%
X193800000Y-93150000D03*
%TO.P,R405,2*%
%TO.N,/Drivers_moteurs/M1_VM*%
X193800000Y-96250000D03*
%TD*%
D12*
%TO.P,R307,1*%
%TO.N,Net-(PS301-EN)*%
X147424500Y-84272000D03*
%TO.P,R307,2*%
%TO.N,+5V*%
X147424500Y-82447000D03*
%TD*%
D10*
%TO.P,J505,1,Pin_1*%
%TO.N,Moustache_3*%
X212852000Y-57277000D03*
D11*
%TO.P,J505,2,Pin_2*%
%TO.N,+3.3V*%
X212851999Y-54776999D03*
%TO.P,J505,3,Pin_3*%
%TO.N,Moustache_3*%
X212851999Y-52276999D03*
%TO.P,J505,4,Pin_4*%
%TO.N,+3.3V*%
X212851999Y-49776999D03*
%TD*%
D16*
%TO.P,R301,1*%
%TO.N,Net-(U301-PG)*%
X141983500Y-85932000D03*
%TO.P,R301,2*%
%TO.N,Net-(U301-VCC)*%
X141983500Y-87757000D03*
%TD*%
D24*
%TO.P,C203,1*%
%TO.N,+3.3V*%
X172058500Y-61087000D03*
%TO.P,C203,2*%
%TO.N,GND*%
X170333500Y-61087000D03*
%TD*%
%TO.P,C306,1*%
%TO.N,+5V*%
X147317500Y-89648500D03*
%TO.P,C306,2*%
%TO.N,GND*%
X145592500Y-89648500D03*
%TD*%
D31*
%TO.P,J506,1,Pin_1*%
%TO.N,Moustache_4*%
X194437000Y-42291000D03*
D32*
%TO.P,J506,2,Pin_2*%
%TO.N,+3.3V*%
X191936999Y-42290999D03*
%TO.P,J506,3,Pin_3*%
%TO.N,Moustache_4*%
X189436999Y-42290999D03*
%TO.P,J506,4,Pin_4*%
%TO.N,+3.3V*%
X186936999Y-42290999D03*
%TD*%
D13*
%TO.P,C209,1*%
%TO.N,GND*%
X168047500Y-71374000D03*
%TO.P,C209,2*%
%TO.N,/STM32G070RBT6/OSC_OUT*%
X169772500Y-71374000D03*
%TD*%
D21*
%TO.P,REF\u002A\u002A,1*%
%TO.N,PWM_MOT1_CH1*%
X188699999Y-87599999D03*
%TD*%
D12*
%TO.P,R208,1*%
%TO.N,Net-(D205-K)*%
X184404000Y-51966500D03*
%TO.P,R208,2*%
%TO.N,GND*%
X184404000Y-50141500D03*
%TD*%
D17*
%TO.P,U402,1,OUT1*%
%TO.N,/Drivers_moteurs/Motor2+*%
X164979000Y-97917000D03*
%TO.P,U402,2,VM*%
%TO.N,/Drivers_moteurs/In_2-*%
X164979000Y-96647000D03*
%TO.P,U402,3,VDD*%
%TO.N,+5V*%
X164979000Y-95377000D03*
%TO.P,U402,4,FWD*%
%TO.N,PWM_MOT2_CH1*%
X164979000Y-94107000D03*
%TO.P,U402,5,REV*%
%TO.N,PWM_MOT2_CH2*%
X160019000Y-94107000D03*
%TO.P,U402,6,VREF*%
%TO.N,+5V*%
X160019000Y-95377000D03*
%TO.P,U402,7,OUT2*%
%TO.N,/Drivers_moteurs/Motor2-*%
X160019000Y-96647000D03*
%TO.P,U402,8,GND*%
%TO.N,GND*%
X160019000Y-97917000D03*
D18*
%TO.P,U402,9*%
%TO.N,N/C*%
X163199000Y-97012000D03*
X163199000Y-96012000D03*
X163199000Y-95012000D03*
D19*
X162498999Y-96011999D03*
D18*
X161799000Y-97012000D03*
X161799000Y-96012000D03*
X161799000Y-95012000D03*
%TD*%
D40*
%TO.P,IC402,1,REF*%
%TO.N,/Drivers_moteurs/REF*%
X175734999Y-95499999D03*
%TO.P,IC402,2,GND*%
%TO.N,GND*%
X175734999Y-94849999D03*
%TO.P,IC402,3,VS*%
%TO.N,+3.3V*%
X175734999Y-94199999D03*
%TO.P,IC402,4,IN+*%
%TO.N,+BATT*%
X173834999Y-94199999D03*
%TO.P,IC402,5,IN-*%
%TO.N,/Drivers_moteurs/In_2-*%
X173834999Y-94849999D03*
%TO.P,IC402,6,OUT*%
%TO.N,ADC_2*%
X173834999Y-95499999D03*
%TD*%
D25*
%TO.P,C207,1*%
%TO.N,/STM32G070RBT6/NRST*%
X172000000Y-75900000D03*
%TO.P,C207,2*%
%TO.N,GND*%
X172000000Y-77625000D03*
%TD*%
D41*
%TO.P,SW204,1,1*%
%TO.N,/STM32G070RBT6/BUTTON_3*%
X192736999Y-70865999D03*
%TO.P,SW204,2,2*%
%TO.N,GND*%
X196136999Y-70865999D03*
%TD*%
D12*
%TO.P,R207,1*%
%TO.N,Net-(D204-K)*%
X182372000Y-51966500D03*
%TO.P,R207,2*%
%TO.N,GND*%
X182372000Y-50141500D03*
%TD*%
D24*
%TO.P,C201,1*%
%TO.N,+3.3V*%
X172058500Y-64897000D03*
%TO.P,C201,2*%
%TO.N,GND*%
X170333500Y-64897000D03*
%TD*%
D26*
%TO.P,R404,1*%
%TO.N,Net-(D404-K)*%
X156500000Y-89600000D03*
%TO.P,R404,2*%
%TO.N,GND*%
X154675000Y-89600000D03*
%TD*%
D21*
%TO.P,REF\u002A\u002A,*%
%TO.N,+5V*%
X155574999Y-60324999D03*
%TD*%
D42*
%TO.P,D403,1,K*%
%TO.N,Net-(D403-K)*%
X166675000Y-89700000D03*
%TO.P,D403,2,A*%
%TO.N,PWM_MOT2_CH1*%
X164925000Y-89700000D03*
%TD*%
%TO.P,D401,1,K*%
%TO.N,Net-(D401-K)*%
X190185000Y-89535000D03*
%TO.P,D401,2,A*%
%TO.N,PWM_MOT1_CH1*%
X188435000Y-89535000D03*
%TD*%
D43*
%TO.P,Y201,1,1*%
%TO.N,/STM32G070RBT6/OSC_OUT*%
X169798999Y-69341999D03*
%TO.P,Y201,2,2*%
%TO.N,GND*%
X169798999Y-67141999D03*
%TO.P,Y201,3,3*%
%TO.N,/STM32G070RBT6/OSC_IN*%
X168098999Y-67141999D03*
%TO.P,Y201,4,4*%
%TO.N,GND*%
X168098999Y-69341999D03*
%TD*%
D39*
%TO.P,D404,1,K*%
%TO.N,Net-(D404-K)*%
X158395500Y-89600000D03*
%TO.P,D404,2,A*%
%TO.N,PWM_MOT2_CH2*%
X160145500Y-89600000D03*
%TD*%
D24*
%TO.P,C503,1*%
%TO.N,GND*%
X203935500Y-66802000D03*
%TO.P,C503,2*%
%TO.N,+5V*%
X202210500Y-66802000D03*
%TD*%
D25*
%TO.P,C208,1*%
%TO.N,/STM32G070RBT6/OSC_IN*%
X165862000Y-66855000D03*
%TO.P,C208,2*%
%TO.N,GND*%
X165862000Y-68580000D03*
%TD*%
D44*
%TO.P,R403,1*%
%TO.N,Net-(D403-K)*%
X168890500Y-89700000D03*
%TO.P,R403,2*%
%TO.N,GND*%
X170715500Y-89700000D03*
%TD*%
D45*
%TO.P,J402,1,Pin_1*%
%TO.N,/Drivers_moteurs/Motor2-*%
X157800000Y-104000000D03*
D32*
%TO.P,J402,2,Pin_2*%
%TO.N,GND*%
X160299999Y-103999999D03*
%TO.P,J402,3,Pin_3*%
%TO.N,Codeur2_PH1*%
X162799999Y-103999999D03*
%TO.P,J402,4,Pin_4*%
%TO.N,Codeur2_PH2*%
X165299999Y-103999999D03*
%TO.P,J402,5,Pin_5*%
%TO.N,+5V*%
X167799999Y-103999999D03*
%TO.P,J402,6,Pin_6*%
%TO.N,/Drivers_moteurs/Motor2+*%
X170299999Y-103999999D03*
%TD*%
D24*
%TO.P,C412,1*%
%TO.N,/Drivers_moteurs/Motor2-*%
X157834500Y-98000000D03*
%TO.P,C412,2*%
%TO.N,GND*%
X156109500Y-98000000D03*
%TD*%
D13*
%TO.P,C411,1*%
%TO.N,/Drivers_moteurs/Motor2+*%
X168537500Y-98000000D03*
%TO.P,C411,2*%
%TO.N,GND*%
X170262500Y-98000000D03*
%TD*%
D24*
%TO.P,C202,1*%
%TO.N,+3.3V*%
X172058500Y-62865000D03*
%TO.P,C202,2*%
%TO.N,GND*%
X170333500Y-62865000D03*
%TD*%
%TO.P,C301,1*%
%TO.N,+BATT*%
X139165500Y-82028500D03*
%TO.P,C301,2*%
%TO.N,GND*%
X137440500Y-82028500D03*
%TD*%
D14*
%TO.P,D203,1,K*%
%TO.N,Net-(D203-K)*%
X186309000Y-54243000D03*
%TO.P,D203,2,A*%
%TO.N,/STM32G070RBT6/YELLOW*%
X186309000Y-55993000D03*
%TD*%
D15*
%TO.P,C501,1*%
%TO.N,GND*%
X207137000Y-73633500D03*
%TO.P,C501,2*%
%TO.N,+5V*%
X207137000Y-71908500D03*
%TD*%
D44*
%TO.P,R306,1*%
%TO.N,Net-(C305-Pad1)*%
X145542500Y-91553500D03*
%TO.P,R306,2*%
%TO.N,+5V*%
X147367500Y-91553500D03*
%TD*%
D21*
%TO.P,REF\u002A\u002A,*%
%TO.N,PWM_MOT2_CH2*%
X159892999Y-87629999D03*
%TD*%
D44*
%TO.P,R401,1*%
%TO.N,Net-(D401-K)*%
X192104000Y-89535000D03*
%TO.P,R401,2*%
%TO.N,GND*%
X193929000Y-89535000D03*
%TD*%
D10*
%TO.P,J509,1,Pin_1*%
%TO.N,Moustache_2*%
X212958000Y-72203000D03*
D11*
%TO.P,J509,2,Pin_2*%
%TO.N,+3.3V*%
X212957999Y-69702999D03*
%TO.P,J509,3,Pin_3*%
%TO.N,Moustache_2*%
X212957999Y-67202999D03*
%TO.P,J509,4,Pin_4*%
%TO.N,+3.3V*%
X212957999Y-64702999D03*
%TD*%
D40*
%TO.P,IC401,*%
%TO.N,+BATT*%
X197726999Y-94076999D03*
%TO.P,IC401,1,REF*%
%TO.N,/Drivers_moteurs/REF*%
X199626999Y-95376999D03*
%TO.P,IC401,2,GND*%
%TO.N,GND*%
X199626999Y-94726999D03*
%TO.P,IC401,3,VS*%
%TO.N,+3.3V*%
X199626999Y-94076999D03*
%TO.P,IC401,5,IN-*%
%TO.N,/Drivers_moteurs/M1_VM*%
X197726999Y-94726999D03*
%TO.P,IC401,6,OUT*%
%TO.N,ADC_1*%
X197726999Y-95376999D03*
%TD*%
D30*
%TO.P,SW201,1,1*%
%TO.N,/STM32G070RBT6/NRST*%
X174497999Y-75818999D03*
%TO.P,SW201,2,2*%
%TO.N,GND*%
X174497999Y-79218999D03*
%TD*%
D26*
%TO.P,R404,1*%
%TO.N,+BATT*%
X152677500Y-68326000D03*
%TO.P,R404,2*%
%TO.N,GND*%
X150852500Y-68326000D03*
%TD*%
D12*
%TO.P,R204,1*%
%TO.N,Net-(D201-K)*%
X178435000Y-51990000D03*
%TO.P,R204,2*%
%TO.N,GND*%
X178435000Y-50165000D03*
%TD*%
D46*
%TO.P,L301,1*%
%TO.N,Net-(U301-SW)*%
X133601499Y-87489499D03*
%TO.P,L301,2*%
%TO.N,+5V*%
X133601499Y-84389499D03*
%TD*%
D31*
%TO.P,J501,1,Pin_1*%
%TO.N,Bordure_2*%
X143764000Y-42418000D03*
D32*
%TO.P,J501,2,Pin_2*%
%TO.N,+5V*%
X141263999Y-42417999D03*
%TO.P,J501,3,Pin_3*%
%TO.N,GND*%
X138763999Y-42417999D03*
%TD*%
D16*
%TO.P,R408,1*%
%TO.N,/Drivers_moteurs/REF*%
X205867000Y-99775000D03*
%TO.P,R408,2*%
%TO.N,GND*%
X205867000Y-101600000D03*
%TD*%
D25*
%TO.P,C302,1*%
%TO.N,GND*%
X143761500Y-85992000D03*
%TO.P,C302,2*%
%TO.N,Net-(U301-VCC)*%
X143761500Y-87717000D03*
%TD*%
D21*
%TO.P,REF\u002A\u002A,*%
%TO.N,PWM_MOT1_CH2*%
X183099999Y-87699999D03*
%TD*%
D13*
%TO.P,C409,1*%
%TO.N,/Drivers_moteurs/Motor1+*%
X192475000Y-98100000D03*
%TO.P,C409,2*%
%TO.N,GND*%
X194200000Y-98100000D03*
%TD*%
D47*
%TO.P,D301,1,A1*%
%TO.N,Net-(D301-A1)*%
X134822999Y-57530999D03*
%TO.P,D301,2,A2*%
%TO.N,Net-(Alim_charger301-Pin_2)*%
X131622999Y-57530999D03*
%TD*%
D21*
%TO.P,REF\u002A\u002A,*%
%TO.N,+BATT*%
X152653999Y-62991999D03*
%TD*%
D48*
%TO.P,IC201,1,PC11*%
%TO.N,LIDAR_RX*%
X174915999Y-60996999D03*
%TO.P,IC201,2,PC12*%
%TO.N,LIDAR_PWM*%
X174915999Y-61496999D03*
%TO.P,IC201,3,PC13*%
%TO.N,unconnected-(IC201-PC13-Pad3)*%
X174915999Y-61996999D03*
%TO.P,IC201,4,PC14-OSC32_IN*%
%TO.N,unconnected-(IC201-PC14-OSC32_IN-Pad4)*%
X174915999Y-62496999D03*
%TO.P,IC201,5,PC15-OSC32_OUT*%
%TO.N,unconnected-(IC201-PC15-OSC32_OUT-Pad5)*%
X174915999Y-62996999D03*
%TO.P,IC201,6,VBAT*%
%TO.N,+3.3V*%
X174915999Y-63496999D03*
%TO.P,IC201,7,VREF+*%
%TO.N,/STM32G070RBT6/VREF*%
X174915999Y-63996999D03*
%TO.P,IC201,8,VDD/VDDA*%
%TO.N,+3.3V*%
X174915999Y-64496999D03*
%TO.P,IC201,9,VSS/VSSA*%
%TO.N,GND*%
X174915999Y-64996999D03*
%TO.P,IC201,10,PF0-OSC_IN*%
%TO.N,/STM32G070RBT6/OSC_IN*%
X174915999Y-65496999D03*
%TO.P,IC201,11,PF1-OSC_OUT*%
%TO.N,/STM32G070RBT6/OSC_OUT*%
X174915999Y-65996999D03*
%TO.P,IC201,12,NRST*%
%TO.N,/STM32G070RBT6/NRST*%
X174915999Y-66496999D03*
%TO.P,IC201,13,PC0*%
%TO.N,/STM32G070RBT6/BUTTON_1*%
X174915999Y-66996999D03*
%TO.P,IC201,14,PC1*%
%TO.N,PWM_MOT2_CH1*%
X174915999Y-67496999D03*
%TO.P,IC201,15,PC2*%
%TO.N,PWM_MOT2_CH2*%
X174915999Y-67996999D03*
%TO.P,IC201,16,PC3*%
%TO.N,/STM32G070RBT6/BUTTON_2*%
X174915999Y-68496999D03*
D49*
%TO.P,IC201,17,PA0*%
%TO.N,Net-(IC201-PA0)*%
X176903999Y-70484999D03*
%TO.P,IC201,18,PA1*%
%TO.N,Net-(IC201-PA1)*%
X177403999Y-70484999D03*
%TO.P,IC201,19,PA2*%
%TO.N,SPI1_MOSI*%
X177903999Y-70484999D03*
%TO.P,IC201,20,PA3*%
%TO.N,unconnected-(IC201-PA3-Pad20)*%
X178403999Y-70484999D03*
%TO.P,IC201,21,PA4*%
%TO.N,/STM32G070RBT6/BUTTON_3*%
X178903999Y-70484999D03*
%TO.P,IC201,22,PA5*%
%TO.N,SPI1_SCK*%
X179403999Y-70484999D03*
%TO.P,IC201,23,PA6*%
%TO.N,PWM_MOT1_CH1*%
X179903999Y-70484999D03*
%TO.P,IC201,24,PA7*%
%TO.N,PWM_MOT1_CH2*%
X180403999Y-70484999D03*
%TO.P,IC201,25,PC4*%
%TO.N,/STM32G070RBT6/TX*%
X180903999Y-70484999D03*
%TO.P,IC201,26,PC5*%
%TO.N,/STM32G070RBT6/RX*%
X181403999Y-70484999D03*
%TO.P,IC201,27,PB0*%
%TO.N,unconnected-(IC201-PB0-Pad27)*%
X181903999Y-70484999D03*
%TO.P,IC201,28,PB1*%
%TO.N,unconnected-(IC201-PB1-Pad28)*%
X182403999Y-70484999D03*
%TO.P,IC201,29,PB2*%
%TO.N,unconnected-(IC201-PB2-Pad29)*%
X182903999Y-70484999D03*
%TO.P,IC201,30,PB10*%
%TO.N,unconnected-(IC201-PB10-Pad30)*%
X183403999Y-70484999D03*
%TO.P,IC201,31,PB11*%
%TO.N,unconnected-(IC201-PB11-Pad31)*%
X183903999Y-70484999D03*
%TO.P,IC201,32,PB12*%
%TO.N,unconnected-(IC201-PB12-Pad32)*%
X184403999Y-70484999D03*
D48*
%TO.P,IC201,33,PB13*%
%TO.N,Moustache_1*%
X186391999Y-68496999D03*
%TO.P,IC201,34,PB14*%
%TO.N,Moustache_2*%
X186391999Y-67996999D03*
%TO.P,IC201,35,PB15*%
%TO.N,Moustache_3*%
X186391999Y-67496999D03*
%TO.P,IC201,36,PA8*%
%TO.N,Codeur1_PH1*%
X186391999Y-66996999D03*
%TO.P,IC201,37,PA9*%
%TO.N,Codeur1_PH2*%
X186391999Y-66496999D03*
%TO.P,IC201,38,PC6*%
%TO.N,Codeur2_PH1*%
X186391999Y-65996999D03*
%TO.P,IC201,39,PC7*%
%TO.N,Codeur2_PH2*%
X186391999Y-65496999D03*
%TO.P,IC201,40,PD8*%
%TO.N,unconnected-(IC201-PD8-Pad40)*%
X186391999Y-64996999D03*
%TO.P,IC201,41,PD9*%
%TO.N,unconnected-(IC201-PD9-Pad41)*%
X186391999Y-64496999D03*
%TO.P,IC201,42,PA10*%
%TO.N,SPI1_CS*%
X186391999Y-63996999D03*
%TO.P,IC201,43,PA11_[PA9]*%
%TO.N,SPI1_MISO*%
X186391999Y-63496999D03*
%TO.P,IC201,44,PA12_[PA10]*%
%TO.N,unconnected-(IC201-PA12_[PA10]-Pad44)*%
X186391999Y-62996999D03*
%TO.P,IC201,45,PA13*%
%TO.N,/STM32G070RBT6/SWDIO*%
X186391999Y-62496999D03*
%TO.P,IC201,46,PA14-BOOT0*%
%TO.N,/STM32G070RBT6/SWCLK*%
X186391999Y-61996999D03*
%TO.P,IC201,47,PA15*%
%TO.N,unconnected-(IC201-PA15-Pad47)*%
X186391999Y-61496999D03*
%TO.P,IC201,48,PC8*%
%TO.N,unconnected-(IC201-PC8-Pad48)*%
X186391999Y-60996999D03*
D49*
%TO.P,IC201,49,PC9*%
%TO.N,unconnected-(IC201-PC9-Pad49)*%
X184403999Y-59008999D03*
%TO.P,IC201,50,PD0*%
%TO.N,/STM32G070RBT6/RED*%
X183903999Y-59008999D03*
%TO.P,IC201,51,PD1*%
%TO.N,/STM32G070RBT6/YELLOW*%
X183403999Y-59008999D03*
%TO.P,IC201,52,PD2*%
%TO.N,/STM32G070RBT6/WHITE*%
X182903999Y-59008999D03*
%TO.P,IC201,53,PD3*%
%TO.N,/STM32G070RBT6/BLUE*%
X182403999Y-59008999D03*
%TO.P,IC201,54,PD4*%
%TO.N,/STM32G070RBT6/GREEN*%
X181903999Y-59008999D03*
%TO.P,IC201,55,PD5*%
%TO.N,unconnected-(IC201-PD5-Pad55)*%
X181403999Y-59008999D03*
%TO.P,IC201,56,PD6*%
%TO.N,unconnected-(IC201-PD6-Pad56)*%
X180903999Y-59008999D03*
%TO.P,IC201,57,PB3*%
%TO.N,LIDAR_DEV*%
X180403999Y-59008999D03*
%TO.P,IC201,58,PB4*%
%TO.N,LIDAR_M*%
X179903999Y-59008999D03*
%TO.P,IC201,59,PB5*%
%TO.N,Moustache_4*%
X179403999Y-59008999D03*
%TO.P,IC201,60,PB6*%
%TO.N,unconnected-(IC201-PB6-Pad60)*%
X178903999Y-59008999D03*
%TO.P,IC201,61,PB7*%
%TO.N,unconnected-(IC201-PB7-Pad61)*%
X178403999Y-59008999D03*
%TO.P,IC201,62,PB8*%
%TO.N,Bordure_1*%
X177903999Y-59008999D03*
%TO.P,IC201,63,PB9*%
%TO.N,Bordure_2*%
X177403999Y-59008999D03*
%TO.P,IC201,64,PC10*%
%TO.N,LIDAR_TX*%
X176903999Y-59008999D03*
%TD*%
D14*
%TO.P,D202,1,K*%
%TO.N,Net-(D202-K)*%
X188341000Y-54243000D03*
%TO.P,D202,2,A*%
%TO.N,/STM32G070RBT6/RED*%
X188341000Y-55993000D03*
%TD*%
D24*
%TO.P,C205,1*%
%TO.N,/STM32G070RBT6/VREF*%
X167994500Y-61087000D03*
%TO.P,C205,2*%
%TO.N,GND*%
X166269500Y-61087000D03*
%TD*%
D25*
%TO.P,C502,1*%
%TO.N,GND*%
X207264000Y-67209500D03*
%TO.P,C502,2*%
%TO.N,Net-(IC501-REGOUT)*%
X207264000Y-68934500D03*
%TD*%
D39*
%TO.P,D402,1,K*%
%TO.N,Net-(D402-K)*%
X181525000Y-89600000D03*
%TO.P,D402,2,A*%
%TO.N,PWM_MOT1_CH2*%
X183275000Y-89600000D03*
%TD*%
D24*
%TO.P,C404,1*%
%TO.N,+3.3V*%
X199468500Y-92299000D03*
%TO.P,C404,2*%
%TO.N,GND*%
X197743500Y-92299000D03*
%TD*%
D37*
%TO.P,D404,*%
%TO.N,+3.3V*%
X158623000Y-66661000D03*
%TO.P,D404,2,A*%
X158623000Y-64911000D03*
%TD*%
D50*
%TO.P,J201,1,Pin_1*%
%TO.N,unconnected-(J201-Pin_1-Pad1)*%
X203289999Y-56006999D03*
%TO.P,J201,2,Pin_2*%
%TO.N,unconnected-(J201-Pin_2-Pad2)*%
X199389999Y-56006999D03*
%TO.P,J201,3,Pin_3*%
%TO.N,+3.3V*%
X203289999Y-54736999D03*
%TO.P,J201,4,Pin_4*%
%TO.N,/STM32G070RBT6/SWDIO*%
X199389999Y-54736999D03*
%TO.P,J201,5,Pin_5*%
%TO.N,GND*%
X203289999Y-53466999D03*
%TO.P,J201,6,Pin_6*%
%TO.N,/STM32G070RBT6/SWCLK*%
X199389999Y-53466999D03*
%TO.P,J201,7,Pin_7*%
%TO.N,GND*%
X203289999Y-52196999D03*
%TO.P,J201,8,Pin_8*%
%TO.N,unconnected-(J201-Pin_8-Pad8)*%
X199389999Y-52196999D03*
%TO.P,J201,9,Pin_9*%
%TO.N,unconnected-(J201-Pin_9-Pad9)*%
X203289999Y-50926999D03*
%TO.P,J201,10,Pin_10*%
%TO.N,unconnected-(J201-Pin_10-Pad10)*%
X199389999Y-50926999D03*
%TO.P,J201,11,Pin_11*%
%TO.N,GND*%
X203289999Y-49656999D03*
%TO.P,J201,12,Pin_12*%
%TO.N,/STM32G070RBT6/NRST*%
X199389999Y-49656999D03*
%TO.P,J201,13,Pin_13*%
%TO.N,/STM32G070RBT6/RX*%
X203289999Y-48386999D03*
%TO.P,J201,14,Pin_14*%
%TO.N,/STM32G070RBT6/TX*%
X199389999Y-48386999D03*
%TD*%
D12*
%TO.P,R209,1*%
%TO.N,Net-(D206-K)*%
X180467000Y-51966500D03*
%TO.P,R209,2*%
%TO.N,GND*%
X180467000Y-50141500D03*
%TD*%
D51*
%TO.P,F301,1*%
%TO.N,Net-(Alim_batterie301-Pin_2)*%
X131823000Y-62103000D03*
%TO.P,F301,2*%
%TO.N,Net-(SW302-B)*%
X134623000Y-62103000D03*
%TD*%
D30*
%TO.P,SW203,1,1*%
%TO.N,/STM32G070RBT6/BUTTON_2*%
X182498999Y-75769999D03*
%TO.P,SW203,2,2*%
%TO.N,GND*%
X182498999Y-79169999D03*
%TD*%
D26*
%TO.P,R404,1*%
%TO.N,GND*%
X160551500Y-68326000D03*
%TO.P,R404,2*%
%TO.N,+3.3V*%
X158726500Y-68326000D03*
%TD*%
D45*
%TO.P,J401,1,Pin_1*%
%TO.N,/Drivers_moteurs/Motor1-*%
X181300000Y-104100000D03*
D32*
%TO.P,J401,2,Pin_2*%
%TO.N,GND*%
X183799999Y-104099999D03*
%TO.P,J401,3,Pin_3*%
%TO.N,Codeur1_PH2*%
X186299999Y-104099999D03*
%TO.P,J401,4,Pin_4*%
%TO.N,Codeur1_PH1*%
X188799999Y-104099999D03*
%TO.P,J401,5,Pin_5*%
%TO.N,+5V*%
X191299999Y-104099999D03*
%TO.P,J401,6,Pin_6*%
%TO.N,/Drivers_moteurs/Motor1+*%
X193799999Y-104099999D03*
%TD*%
D14*
%TO.P,D201,1,K*%
%TO.N,Net-(D201-K)*%
X178435000Y-54243000D03*
%TO.P,D201,2,A*%
%TO.N,+3.3V*%
X178435000Y-55993000D03*
%TD*%
D52*
%TO.P,SW302,1,A*%
%TO.N,Net-(D301-A1)*%
X140718000Y-57145000D03*
%TO.P,SW302,2,B*%
%TO.N,Net-(SW302-B)*%
X140718000Y-61845000D03*
%TO.P,SW302,3,C*%
%TO.N,+BATT*%
X140718000Y-66545000D03*
%TD*%
D37*
%TO.P,D404,*%
%TO.N,+5V*%
X155575000Y-64361000D03*
%TO.P,D404,2,A*%
X155575000Y-62611000D03*
%TD*%
D25*
%TO.P,C406,1*%
%TO.N,/Drivers_moteurs/M1_VM*%
X195949000Y-94675000D03*
%TO.P,C406,2*%
%TO.N,GND*%
X195949000Y-96400000D03*
%TD*%
D12*
%TO.P,R206,1*%
%TO.N,Net-(D203-K)*%
X186309000Y-51966500D03*
%TO.P,R206,2*%
%TO.N,GND*%
X186309000Y-50141500D03*
%TD*%
D22*
%TO.P,REF\u002A\u002A,1*%
%TO.N,N/C*%
X129125944Y-42718056D03*
X129828888Y-41021000D03*
X129828888Y-44415112D03*
X131525944Y-40318056D03*
D23*
%TO.N,GND*%
X131525944Y-42718056D03*
D22*
%TO.N,N/C*%
X131525944Y-45118056D03*
X133223000Y-41021000D03*
X133223000Y-44415112D03*
X133925944Y-42718056D03*
%TD*%
D14*
%TO.P,D206,1,K*%
%TO.N,Net-(D206-K)*%
X180434000Y-54257000D03*
%TO.P,D206,2,A*%
%TO.N,/STM32G070RBT6/GREEN*%
X180434000Y-56007000D03*
%TD*%
D53*
%TO.N,GND*%
X143764000Y-85090000D03*
X201019000Y-94712000D03*
X159800000Y-99000000D03*
X174498000Y-80010000D03*
X172946000Y-92456000D03*
X203962000Y-66040000D03*
X178200000Y-94900000D03*
X204851000Y-53467000D03*
X204343000Y-70612000D03*
X188341000Y-49149000D03*
X181158000Y-92794000D03*
X173100000Y-97400000D03*
X164973000Y-68834000D03*
X205867000Y-102616000D03*
X203327000Y-69723000D03*
X197717000Y-91410000D03*
X207391000Y-66294000D03*
X184404000Y-49149000D03*
X167132000Y-69469000D03*
X148694500Y-83486500D03*
X155200000Y-98000000D03*
X137157500Y-85076500D03*
X196500000Y-97400000D03*
X141732000Y-90932000D03*
X194884000Y-89535000D03*
X160147000Y-67437000D03*
X180467000Y-49149000D03*
X157800000Y-92456000D03*
X154495500Y-90300000D03*
X183261000Y-98700000D03*
X171958000Y-78486000D03*
X185166000Y-78613000D03*
X171708000Y-89700000D03*
X202438000Y-70612000D03*
X176276000Y-64897000D03*
X192532000Y-77597000D03*
X205100000Y-49600000D03*
X182499000Y-80137000D03*
X144653000Y-88900000D03*
X186309000Y-49149000D03*
X170815000Y-67183000D03*
X150876000Y-67564000D03*
X169545000Y-61849000D03*
X168021000Y-72136000D03*
X197104000Y-70866000D03*
X178435000Y-49149000D03*
X169418000Y-65024000D03*
X179300000Y-97300000D03*
X178562000Y-80137000D03*
X203327000Y-71501000D03*
X207264000Y-74549000D03*
X165354000Y-61087000D03*
X182372000Y-49149000D03*
X178400000Y-88400000D03*
X149606000Y-80899000D03*
X155575000Y-68961000D03*
X148209000Y-86106000D03*
%TO.N,+BATT*%
X170373000Y-92329000D03*
X169484000Y-92329000D03*
X138049000Y-94337500D03*
X194405000Y-91707000D03*
X193500000Y-91700000D03*
%TO.N,/STM32G070RBT6/NRST*%
X174498000Y-75184000D03*
X176403000Y-66497000D03*
%TO.N,+3.3V*%
X175700000Y-89500000D03*
X165354000Y-62865000D03*
X177419000Y-55753000D03*
X209550000Y-95457000D03*
X204724000Y-54737000D03*
X159300000Y-81000000D03*
X160100000Y-81000000D03*
X173101000Y-65024000D03*
X199495000Y-91410000D03*
X172085000Y-60198000D03*
%TO.N,+5V*%
X200025000Y-69850000D03*
X189921000Y-95588000D03*
X156784000Y-95250000D03*
X166309000Y-95377000D03*
X149200000Y-87700000D03*
X208255799Y-72111799D03*
X205867000Y-68326000D03*
X133604000Y-83058000D03*
X149500000Y-97600000D03*
X148300000Y-87700000D03*
X149500000Y-96800000D03*
X202184000Y-66040000D03*
X180269000Y-95461000D03*
%TO.N,LIDAR_PWM*%
X172258701Y-53141299D03*
%TO.N,PWM_MOT2_CH1*%
X176276000Y-67497000D03*
%TO.N,PWM_MOT2_CH2*%
X173640500Y-67949997D03*
%TO.N,PWM_MOT1_CH1*%
X179949511Y-68960137D03*
%TO.N,PWM_MOT1_CH2*%
X180944904Y-69050683D03*
%TO.N,/STM32G070RBT6/TX*%
X198628000Y-48387000D03*
X191262000Y-70612000D03*
%TO.N,/STM32G070RBT6/RX*%
X190754000Y-69215000D03*
X204216000Y-48387000D03*
%TO.N,Moustache_1*%
X187695542Y-69220799D03*
%TO.N,Moustache_2*%
X187715718Y-68221500D03*
%TO.N,Moustache_3*%
X193700000Y-67347500D03*
%TO.N,Codeur1_PH1*%
X183282607Y-67221500D03*
%TO.N,Codeur1_PH2*%
X182299887Y-66586967D03*
%TO.N,Codeur2_PH1*%
X182301146Y-65587465D03*
%TO.N,Codeur2_PH2*%
X182288049Y-64588049D03*
%TO.N,LIDAR_DEV*%
X178578620Y-61102634D03*
%TO.N,LIDAR_M*%
X179578000Y-61087000D03*
%TO.N,Bordure_1*%
X178022500Y-57404000D03*
%TO.N,Bordure_2*%
X176784000Y-57404000D03*
%TO.N,/Drivers_moteurs/Motor1-*%
X181700000Y-97600000D03*
X182300000Y-97000000D03*
%TO.N,/Drivers_moteurs/Motor1+*%
X191200000Y-98100000D03*
X190100000Y-98100000D03*
%TO.N,/Drivers_moteurs/Motor2+*%
X167283000Y-97917000D03*
X166183000Y-97917000D03*
%TO.N,/Drivers_moteurs/Motor2-*%
X158700000Y-97063918D03*
X158200000Y-97600000D03*
%TO.N,Moustache_4*%
X180086000Y-57531000D03*
%TD*%
D54*
%TO.N,GND*%
X171958000Y-78486000D02*
X171958000Y-77443500D01*
D55*
X203708000Y-71882000D02*
X203327000Y-71501000D01*
D54*
X143764000Y-85989500D02*
X143761500Y-85992000D01*
X137386500Y-85305500D02*
X137157500Y-85076500D01*
X197104000Y-70866000D02*
X196137000Y-70866000D01*
D55*
X203568000Y-71742000D02*
X203327000Y-71501000D01*
D54*
X144653000Y-88900000D02*
X144844000Y-88900000D01*
X173200000Y-97500000D02*
X173100000Y-97400000D01*
X141732000Y-90932000D02*
X141732000Y-91520000D01*
X141732000Y-91520000D02*
X141605000Y-91647000D01*
D55*
X202568000Y-72260000D02*
X203327000Y-71501000D01*
X203568000Y-69482000D02*
X203327000Y-69723000D01*
D54*
X172510000Y-97400000D02*
X172024000Y-96914000D01*
X165354000Y-61087000D02*
X166269500Y-61087000D01*
X159799000Y-98999000D02*
X159799000Y-97917000D01*
X160147000Y-67921500D02*
X160551500Y-68326000D01*
X159800000Y-99000000D02*
X159799000Y-98999000D01*
X150852500Y-67587500D02*
X150852500Y-68326000D01*
X137386500Y-85305500D02*
X137386500Y-86032500D01*
X170206500Y-65024000D02*
X170333500Y-64897000D01*
X185192500Y-78586500D02*
X185166000Y-78613000D01*
X181158000Y-93681500D02*
X181229000Y-93752500D01*
D55*
X203568000Y-72782000D02*
X203568000Y-71742000D01*
D54*
X144844000Y-88900000D02*
X145592500Y-89648500D01*
X201019000Y-94712000D02*
X201004000Y-94727000D01*
X164973000Y-68834000D02*
X165608000Y-68834000D01*
D55*
X203068000Y-68482000D02*
X203068000Y-69464000D01*
D54*
X204851000Y-49657000D02*
X203290000Y-49657000D01*
X170662500Y-98000000D02*
X172200000Y-96462500D01*
X179300000Y-97300000D02*
X179536000Y-97536000D01*
X169545000Y-61849000D02*
X169545000Y-62076500D01*
X182499000Y-79170000D02*
X182499000Y-80137000D01*
X149606000Y-80899000D02*
X150521500Y-80899000D01*
D55*
X202168000Y-70882000D02*
X202438000Y-70612000D01*
X202568000Y-72782000D02*
X202568000Y-72260000D01*
D54*
X155200000Y-98000000D02*
X156109500Y-98000000D01*
X188341000Y-49149000D02*
X188341000Y-50165000D01*
X191489500Y-77597000D02*
X192532000Y-77597000D01*
X178562000Y-79170000D02*
X178562000Y-80137000D01*
X186309000Y-49149000D02*
X186309000Y-50141500D01*
X204851000Y-53467000D02*
X203290000Y-53467000D01*
X170715500Y-89700000D02*
X171708000Y-89700000D01*
X165608000Y-68834000D02*
X165862000Y-68580000D01*
D55*
X204068000Y-72242000D02*
X203327000Y-71501000D01*
D54*
X185192500Y-77597000D02*
X185192500Y-78586500D01*
X178200000Y-94900000D02*
X178150000Y-94850000D01*
X177931500Y-88868500D02*
X178400000Y-88400000D01*
X170262500Y-98000000D02*
X170662500Y-98000000D01*
D56*
X167972000Y-69469000D02*
X168099000Y-69342000D01*
D54*
X195800000Y-98100000D02*
X196500000Y-97400000D01*
X174115500Y-92583000D02*
X173073000Y-92583000D01*
X169545000Y-61849000D02*
X169571500Y-61849000D01*
X148694500Y-83486500D02*
X149562500Y-83486500D01*
X205867000Y-102616000D02*
X205867000Y-101600000D01*
D55*
X204343000Y-69723000D02*
X204684000Y-69382000D01*
D54*
X143764000Y-85090000D02*
X143764000Y-85989500D01*
X195949000Y-96849000D02*
X195949000Y-96533000D01*
D56*
X167132000Y-69469000D02*
X167972000Y-69469000D01*
D54*
X178435000Y-49149000D02*
X178435000Y-50165000D01*
X181158000Y-92794000D02*
X181158000Y-93681500D01*
X169571500Y-61849000D02*
X170333500Y-61087000D01*
X207137000Y-73633500D02*
X207137000Y-74422000D01*
D55*
X203327000Y-69723000D02*
X204343000Y-69723000D01*
D54*
X207391000Y-66294000D02*
X207391000Y-67082500D01*
X157800000Y-93498500D02*
X157800000Y-92456000D01*
X196500000Y-97400000D02*
X195949000Y-96849000D01*
X184404000Y-49149000D02*
X184404000Y-50141500D01*
X160147000Y-67437000D02*
X160147000Y-67921500D01*
X173100000Y-97400000D02*
X172510000Y-97400000D01*
D55*
X204068000Y-68982000D02*
X203327000Y-69723000D01*
X205468000Y-71882000D02*
X203708000Y-71882000D01*
D54*
X174498000Y-80010000D02*
X174498000Y-79121000D01*
X183261000Y-98700000D02*
X183261000Y-98044000D01*
D55*
X174916000Y-64997000D02*
X176176000Y-64997000D01*
X204068000Y-72782000D02*
X204068000Y-72242000D01*
D54*
X203935500Y-66066500D02*
X203962000Y-66040000D01*
X170815000Y-67183000D02*
X169840000Y-67183000D01*
X144653000Y-88900000D02*
X144663500Y-88900000D01*
X182372000Y-49149000D02*
X182372000Y-50141500D01*
X193929000Y-89535000D02*
X194884000Y-89535000D01*
X196500000Y-97400000D02*
X197537500Y-97400000D01*
D55*
X201168000Y-70882000D02*
X202168000Y-70882000D01*
D54*
X149562500Y-83486500D02*
X149623500Y-83425500D01*
X174137500Y-97500000D02*
X173200000Y-97500000D01*
D55*
X204684000Y-69382000D02*
X205468000Y-69382000D01*
X176176000Y-64997000D02*
X176276000Y-64897000D01*
D54*
X150876000Y-67564000D02*
X150852500Y-67587500D01*
X169418000Y-65024000D02*
X170206500Y-65024000D01*
X197743500Y-92299000D02*
X197743500Y-91436500D01*
D55*
X202568000Y-68482000D02*
X202568000Y-68964000D01*
D54*
X203935500Y-66802000D02*
X203935500Y-66066500D01*
D55*
X202568000Y-68964000D02*
X203327000Y-69723000D01*
D54*
X194200000Y-98100000D02*
X195800000Y-98100000D01*
X137386500Y-82082500D02*
X137386500Y-85305500D01*
X207137000Y-74422000D02*
X207264000Y-74549000D01*
X178150000Y-94850000D02*
X176074949Y-94850000D01*
X169840000Y-67183000D02*
X169799000Y-67142000D01*
X203290000Y-53467000D02*
X203290000Y-52197000D01*
D56*
X168021000Y-71400500D02*
X168047500Y-71374000D01*
D55*
X203068000Y-71760000D02*
X203327000Y-71501000D01*
D54*
X144663500Y-88900000D02*
X145566000Y-87997500D01*
X180467000Y-49149000D02*
X180467000Y-50141500D01*
D56*
X168021000Y-72136000D02*
X168021000Y-71400500D01*
D54*
X197537500Y-97400000D02*
X197937500Y-97000000D01*
D55*
X174368500Y-79072000D02*
X174371000Y-79069500D01*
D54*
X137440500Y-82028500D02*
X137386500Y-82082500D01*
D55*
X204068000Y-68482000D02*
X204068000Y-68982000D01*
D54*
X207391000Y-67082500D02*
X207264000Y-67209500D01*
X173073000Y-92583000D02*
X172946000Y-92456000D01*
X177931500Y-89600000D02*
X177931500Y-88868500D01*
X148209000Y-86106000D02*
X147293500Y-86106000D01*
X197743500Y-91436500D02*
X197717000Y-91410000D01*
D55*
X203068000Y-72782000D02*
X203068000Y-71760000D01*
D54*
X201004000Y-94727000D02*
X199829949Y-94727000D01*
D55*
X203568000Y-68482000D02*
X203568000Y-69482000D01*
D54*
X169545000Y-62076500D02*
X170333500Y-62865000D01*
D55*
X203068000Y-69464000D02*
X203327000Y-69723000D01*
D56*
%TO.N,Net-(Alim_batterie301-Pin_2)*%
X130101252Y-69048000D02*
X129794000Y-69048000D01*
X131699000Y-67450252D02*
X130101252Y-69048000D01*
X131699000Y-62487000D02*
X131699000Y-67450252D01*
%TO.N,Net-(Alim_charger301-Pin_2)*%
X131623000Y-55204000D02*
X131623000Y-57531000D01*
X129485000Y-53066000D02*
X131623000Y-55204000D01*
%TO.N,+BATT*%
X169900000Y-92802000D02*
X170373000Y-92329000D01*
X193500000Y-91700000D02*
X193650000Y-91700000D01*
X139062500Y-84034000D02*
X139062500Y-68200500D01*
D57*
X139163000Y-83933500D02*
X138711500Y-84385000D01*
D55*
X196558000Y-93332000D02*
X197303000Y-94077000D01*
D54*
X170373000Y-93098000D02*
X169898000Y-93573000D01*
D56*
X193800000Y-93150000D02*
X193800000Y-92312000D01*
X193800000Y-92312000D02*
X194405000Y-91707000D01*
D55*
X173208000Y-93573000D02*
X173835000Y-94200000D01*
D56*
X169900000Y-93200000D02*
X169900000Y-92802000D01*
D54*
X169484000Y-93159000D02*
X169898000Y-93573000D01*
D55*
X197303000Y-94077000D02*
X197727000Y-94077000D01*
D54*
X138049000Y-94337500D02*
X138049000Y-93472000D01*
D55*
X152677500Y-68326000D02*
X152677500Y-66684500D01*
X152654000Y-64911000D02*
X152654000Y-62992000D01*
D56*
X139062500Y-68200500D02*
X140718000Y-66545000D01*
D57*
X138711500Y-84385000D02*
X138711500Y-86159500D01*
D56*
X169900000Y-93200000D02*
X169900000Y-92745000D01*
D55*
X139036000Y-84060500D02*
X139163000Y-83933500D01*
D54*
X169484000Y-92329000D02*
X169484000Y-93159000D01*
X170373000Y-92329000D02*
X170373000Y-93098000D01*
D55*
X193917000Y-93332000D02*
X196558000Y-93332000D01*
D56*
X193650000Y-91700000D02*
X193800000Y-91850000D01*
X193800000Y-91850000D02*
X193800000Y-93150000D01*
X169900000Y-92745000D02*
X169484000Y-92329000D01*
D55*
X169865000Y-93573000D02*
X173208000Y-93573000D01*
X152677500Y-66684500D02*
X152654000Y-66661000D01*
%TO.N,/STM32G070RBT6/NRST*%
X196194500Y-49657000D02*
X199390000Y-49657000D01*
X174498000Y-75819000D02*
X172081000Y-75819000D01*
X172081000Y-75819000D02*
X172000000Y-75900000D01*
X176403000Y-66497000D02*
X174916000Y-66497000D01*
X179354500Y-66497000D02*
X196194500Y-49657000D01*
X176403000Y-66497000D02*
X179354500Y-66497000D01*
%TO.N,/STM32G070RBT6/OSC_IN*%
X166149000Y-67142000D02*
X165862000Y-66855000D01*
X168964500Y-65950000D02*
X168099000Y-66815500D01*
X173289104Y-65950000D02*
X173742104Y-65497000D01*
X168099000Y-67142000D02*
X166149000Y-67142000D01*
X168964500Y-65950000D02*
X173289104Y-65950000D01*
X168099000Y-66815500D02*
X168099000Y-67142000D01*
X173742104Y-65497000D02*
X174916000Y-65497000D01*
D54*
%TO.N,+3.3V*%
X152123500Y-82475500D02*
X152123500Y-81022000D01*
X178195000Y-55753000D02*
X178435000Y-55993000D01*
X199490000Y-92320500D02*
X199468500Y-92299000D01*
X160100000Y-81000000D02*
X160000000Y-80900000D01*
D55*
X174916000Y-64497000D02*
X172458500Y-64497000D01*
D54*
X160000000Y-80900000D02*
X152247500Y-80900000D01*
X152247500Y-80900000D02*
X152246500Y-80899000D01*
X175700000Y-89500000D02*
X175840500Y-89640500D01*
X172185500Y-65024000D02*
X172058500Y-64897000D01*
D55*
X158623000Y-66661000D02*
X158623000Y-68222500D01*
D54*
X199468500Y-91436500D02*
X199495000Y-91410000D01*
X199490000Y-94077000D02*
X199490000Y-92320500D01*
X209550000Y-95457000D02*
X205867000Y-95457000D01*
X199468500Y-92299000D02*
X199468500Y-91436500D01*
X204724000Y-54737000D02*
X203290000Y-54737000D01*
X175840500Y-92583000D02*
X175735000Y-92688500D01*
X173101000Y-65024000D02*
X172185500Y-65024000D01*
D55*
X158623000Y-64911000D02*
X158623000Y-62992000D01*
D54*
X152123500Y-81022000D02*
X152246500Y-80899000D01*
D55*
X172458500Y-64497000D02*
X172058500Y-64897000D01*
D54*
X172085000Y-60198000D02*
X172085000Y-61060500D01*
D55*
X174916000Y-63497000D02*
X172690500Y-63497000D01*
X158623000Y-68222500D02*
X158726500Y-68326000D01*
X172058500Y-62865000D02*
X172058500Y-61087000D01*
X172690500Y-63497000D02*
X172058500Y-62865000D01*
D54*
X172085000Y-61060500D02*
X172058500Y-61087000D01*
X177419000Y-55753000D02*
X178195000Y-55753000D01*
X175735000Y-92688500D02*
X175735000Y-94200000D01*
X165354000Y-62865000D02*
X166257000Y-62865000D01*
X175840500Y-89640500D02*
X175840500Y-92583000D01*
D55*
%TO.N,Net-(IC201-PA0)*%
X183065000Y-73718000D02*
X186917500Y-77570500D01*
X186917500Y-77570500D02*
X186917500Y-77597000D01*
X186917500Y-79579000D02*
X187071000Y-79732500D01*
X176904000Y-70485000D02*
X176904000Y-72762604D01*
X176904000Y-72762604D02*
X177859396Y-73718000D01*
X177859396Y-73718000D02*
X183065000Y-73718000D01*
X186917500Y-77597000D02*
X186917500Y-79579000D01*
%TO.N,/STM32G070RBT6/VREF*%
X168592500Y-63309500D02*
X167994500Y-62711500D01*
X167994500Y-62711500D02*
X167994500Y-61087000D01*
X169280000Y-63997000D02*
X168592500Y-63309500D01*
X174916000Y-63997000D02*
X169280000Y-63997000D01*
%TO.N,Net-(IC201-PA1)*%
X177404000Y-70485000D02*
X177404000Y-72626208D01*
X185435500Y-73268000D02*
X189764500Y-77597000D01*
X178045792Y-73268000D02*
X185435500Y-73268000D01*
X189764500Y-79706000D02*
X189738000Y-79732500D01*
X189764500Y-77597000D02*
X189764500Y-79706000D01*
X177404000Y-72626208D02*
X178045792Y-73268000D01*
D54*
%TO.N,+5V*%
X202210500Y-66802000D02*
X202210500Y-66066500D01*
D56*
X147291000Y-87997500D02*
X147588500Y-87700000D01*
D54*
X208052500Y-71908500D02*
X208255799Y-72111799D01*
D56*
X147294000Y-93458500D02*
X147294000Y-88000500D01*
D54*
X147424500Y-82447000D02*
X149595000Y-82447000D01*
D55*
X155575000Y-66270500D02*
X155575000Y-64361000D01*
D54*
X157800000Y-95223500D02*
X156810500Y-95223500D01*
D55*
X206216000Y-69882000D02*
X205468000Y-69882000D01*
X205867000Y-68326000D02*
X206268000Y-68727000D01*
D54*
X133604000Y-83058000D02*
X133604000Y-84387000D01*
D56*
X149500000Y-97600000D02*
X149500000Y-97500000D01*
D54*
X145568500Y-86106000D02*
X145568500Y-86275000D01*
D56*
X147588500Y-87700000D02*
X148300000Y-87700000D01*
X149200000Y-87700000D02*
X148300000Y-87700000D01*
D55*
X206610500Y-71382000D02*
X207137000Y-71908500D01*
D54*
X159799000Y-95377000D02*
X157953500Y-95377000D01*
D55*
X205468000Y-71382000D02*
X206610500Y-71382000D01*
D54*
X207137000Y-71908500D02*
X208052500Y-71908500D01*
D55*
X206268000Y-68727000D02*
X206268000Y-69830000D01*
X202068000Y-66944500D02*
X202210500Y-66802000D01*
D54*
X147291000Y-89622000D02*
X147317500Y-89648500D01*
X189837000Y-95504000D02*
X189921000Y-95588000D01*
X180285500Y-95477500D02*
X180269000Y-95461000D01*
X181229000Y-95477500D02*
X180285500Y-95477500D01*
D55*
X155575000Y-62611000D02*
X155575000Y-60325000D01*
D54*
X202210500Y-66066500D02*
X202184000Y-66040000D01*
D56*
X149500000Y-96500000D02*
X149500000Y-88000000D01*
D55*
X200057000Y-69882000D02*
X201168000Y-69882000D01*
D56*
X147294000Y-88000500D02*
X147291000Y-87997500D01*
D54*
X188661000Y-95504000D02*
X189837000Y-95504000D01*
X145568500Y-86106000D02*
X145568500Y-84303000D01*
X149595000Y-82447000D02*
X149623500Y-82475500D01*
D56*
X149500000Y-88000000D02*
X149200000Y-87700000D01*
D54*
X156810500Y-95223500D02*
X156784000Y-95250000D01*
X133604000Y-84387000D02*
X133601500Y-84389500D01*
X165199000Y-95377000D02*
X166309000Y-95377000D01*
X145568500Y-84303000D02*
X147424500Y-82447000D01*
X145568500Y-86275000D02*
X147291000Y-87997500D01*
X183261000Y-95504000D02*
X181255500Y-95504000D01*
D55*
X202068000Y-68482000D02*
X202068000Y-66944500D01*
D54*
X157953500Y-95377000D02*
X157800000Y-95223500D01*
D56*
X147317500Y-88024000D02*
X147291000Y-87997500D01*
D55*
X206268000Y-69830000D02*
X206216000Y-69882000D01*
D56*
X149500000Y-96800000D02*
X149500000Y-97600000D01*
D54*
X181255500Y-95504000D02*
X181229000Y-95477500D01*
D55*
X200025000Y-69850000D02*
X200057000Y-69882000D01*
%TO.N,Net-(C305-Pad1)*%
X141618500Y-93458500D02*
X145569000Y-93458500D01*
X145569000Y-91580000D02*
X145542500Y-91553500D01*
X141581500Y-93495500D02*
X141605000Y-93472000D01*
X145569000Y-93458500D02*
X145569000Y-91580000D01*
X141605000Y-93472000D02*
X141618500Y-93458500D01*
X139827000Y-93495500D02*
X141581500Y-93495500D01*
D57*
%TO.N,Net-(U301-SW)*%
X138061500Y-86982500D02*
X137528500Y-87515500D01*
X137528500Y-87515500D02*
X134109500Y-87515500D01*
D56*
X133731000Y-91570000D02*
X133731000Y-87619000D01*
D57*
X138061500Y-86032500D02*
X138061500Y-86982500D01*
D56*
X133731000Y-87619000D02*
X133601500Y-87489500D01*
%TO.N,Net-(C304-Pad2)*%
X133731000Y-93295000D02*
X135625500Y-93295000D01*
D54*
X135625500Y-93295000D02*
X135636000Y-93305500D01*
D55*
%TO.N,Net-(U301-VCC)*%
X138711500Y-87807500D02*
X138802000Y-87717000D01*
X138711500Y-88632500D02*
X138711500Y-87807500D01*
X138802000Y-87717000D02*
X143761500Y-87717000D01*
%TO.N,/Drivers_moteurs/REF*%
X202600000Y-99775000D02*
X177575000Y-99775000D01*
X175735000Y-97935000D02*
X175735000Y-95500000D01*
X205867000Y-97282000D02*
X205867000Y-99775000D01*
X205867000Y-99775000D02*
X202437500Y-99775000D01*
X199627000Y-95377000D02*
X199627000Y-96964500D01*
X202437500Y-99775000D02*
X202600000Y-99775000D01*
X199627000Y-96964500D02*
X199662500Y-97000000D01*
X199662500Y-97000000D02*
X202437500Y-99775000D01*
X177575000Y-99775000D02*
X175735000Y-97935000D01*
%TO.N,Net-(IC501-REGOUT)*%
X205468000Y-70382000D02*
X206352396Y-70382000D01*
X206352396Y-70382000D02*
X207264000Y-69470396D01*
X207264000Y-69470396D02*
X207264000Y-68934500D01*
%TO.N,Net-(D201-K)*%
X178435000Y-54243000D02*
X178435000Y-51990000D01*
%TO.N,Net-(D202-K)*%
X188341000Y-54243000D02*
X188341000Y-51990000D01*
%TO.N,/STM32G070RBT6/RED*%
X187041000Y-57293000D02*
X188341000Y-55993000D01*
X183904000Y-59009000D02*
X183904000Y-58107896D01*
X184718896Y-57293000D02*
X187041000Y-57293000D01*
X183904000Y-58107896D02*
X184718896Y-57293000D01*
%TO.N,Net-(D203-K)*%
X186309000Y-54243000D02*
X186309000Y-51966500D01*
%TO.N,/STM32G070RBT6/YELLOW*%
X185459000Y-56843000D02*
X186309000Y-55993000D01*
X183404000Y-57971500D02*
X184532500Y-56843000D01*
X183404000Y-59009000D02*
X183404000Y-57971500D01*
X184532500Y-56843000D02*
X185459000Y-56843000D01*
%TO.N,Net-(D204-K)*%
X182372000Y-54257000D02*
X182372000Y-51966500D01*
%TO.N,/STM32G070RBT6/BLUE*%
X182404000Y-56039000D02*
X182372000Y-56007000D01*
X182404000Y-59009000D02*
X182404000Y-56039000D01*
%TO.N,Net-(D205-K)*%
X184404000Y-54243000D02*
X184404000Y-51966500D01*
%TO.N,/STM32G070RBT6/WHITE*%
X182904000Y-59009000D02*
X182904000Y-57493000D01*
X182904000Y-57493000D02*
X184404000Y-55993000D01*
%TO.N,Net-(D206-K)*%
X180467000Y-54257000D02*
X180467000Y-51966500D01*
%TO.N,/STM32G070RBT6/GREEN*%
X180467000Y-56534500D02*
X180467000Y-56007000D01*
X181904000Y-57971500D02*
X180467000Y-56534500D01*
X181904000Y-59009000D02*
X181904000Y-57971500D01*
D56*
%TO.N,Net-(D301-A1)*%
X140459000Y-57404000D02*
X140718000Y-57145000D01*
X134950000Y-57404000D02*
X140459000Y-57404000D01*
X134823000Y-57531000D02*
X134950000Y-57404000D01*
D55*
%TO.N,LIDAR_RX*%
X167132000Y-46990000D02*
X167132000Y-42291000D01*
X174916000Y-60997000D02*
X174916000Y-54774000D01*
X174916000Y-54774000D02*
X167132000Y-46990000D01*
%TO.N,LIDAR_PWM*%
X173228000Y-54110598D02*
X173228000Y-60846500D01*
X173228000Y-60846500D02*
X173878500Y-61497000D01*
X173878500Y-61497000D02*
X174916000Y-61497000D01*
X172258701Y-53141299D02*
X173228000Y-54110598D01*
%TO.N,/STM32G070RBT6/OSC_OUT*%
X173878500Y-65997000D02*
X174916000Y-65997000D01*
X169799000Y-69342000D02*
X169799000Y-71347500D01*
X171577000Y-69064500D02*
X171577000Y-66929000D01*
X171577000Y-66929000D02*
X172106000Y-66400000D01*
X173475500Y-66400000D02*
X173878500Y-65997000D01*
X169799000Y-71347500D02*
X169772500Y-71374000D01*
X172106000Y-66400000D02*
X173475500Y-66400000D01*
X171473500Y-71374000D02*
X171577000Y-71270500D01*
X169772500Y-71374000D02*
X171473500Y-71374000D01*
%TO.N,/STM32G070RBT6/BUTTON_1*%
X177497000Y-75770000D02*
X178562000Y-75770000D01*
X172593000Y-70866000D02*
X177497000Y-75770000D01*
X172593000Y-67564698D02*
X172593000Y-70866000D01*
X174916000Y-66997000D02*
X173160698Y-66997000D01*
X173160698Y-66997000D02*
X172593000Y-67564698D01*
%TO.N,PWM_MOT2_CH1*%
X164925000Y-89700000D02*
X164925000Y-94053000D01*
X164925000Y-94053000D02*
X164979000Y-94107000D01*
X164925000Y-87975000D02*
X165100000Y-87800000D01*
X164977000Y-89432000D02*
X165245000Y-89700000D01*
X164925000Y-89700000D02*
X164925000Y-87975000D01*
X176276000Y-67497000D02*
X174916000Y-67497000D01*
%TO.N,PWM_MOT2_CH2*%
X159966500Y-87441000D02*
X159966500Y-89421000D01*
D54*
X173640500Y-67949997D02*
X173728500Y-67949997D01*
D55*
X160145500Y-93980500D02*
X160019000Y-94107000D01*
X174916000Y-67997000D02*
X173687503Y-67997000D01*
X160145500Y-89600000D02*
X160145500Y-93980500D01*
X173687503Y-67997000D02*
X173640500Y-67949997D01*
X159966500Y-89421000D02*
X160145500Y-89600000D01*
%TO.N,/STM32G070RBT6/BUTTON_2*%
X182323000Y-75770000D02*
X182499000Y-75770000D01*
X180721000Y-74168000D02*
X182323000Y-75770000D01*
X177673000Y-74168000D02*
X180721000Y-74168000D01*
X174916000Y-71411000D02*
X177673000Y-74168000D01*
X174916000Y-68497000D02*
X174916000Y-71411000D01*
%TO.N,SPI1_MOSI*%
X177904000Y-70485000D02*
X177904000Y-72489812D01*
X178232188Y-72818000D02*
X202032000Y-72818000D01*
X202032000Y-72818000D02*
X202068000Y-72782000D01*
X177904000Y-72489812D02*
X178232188Y-72818000D01*
%TO.N,/STM32G070RBT6/BUTTON_3*%
X179668000Y-72368000D02*
X191108000Y-72368000D01*
X178904000Y-70485000D02*
X178904000Y-71604000D01*
X191108000Y-72368000D02*
X192737000Y-70739000D01*
X178904000Y-71604000D02*
X179668000Y-72368000D01*
%TO.N,SPI1_SCK*%
X179541863Y-68235137D02*
X184314533Y-68235137D01*
X197670000Y-69781000D02*
X199771000Y-71882000D01*
X197072000Y-68072000D02*
X197670000Y-68670000D01*
X199771000Y-71882000D02*
X201168000Y-71882000D01*
X179404000Y-70485000D02*
X179404000Y-69601989D01*
X179404000Y-69601989D02*
X179224511Y-69422500D01*
X189521000Y-69051000D02*
X190500000Y-68072000D01*
X184314533Y-68235137D02*
X187097396Y-71018000D01*
X187097396Y-71018000D02*
X188949604Y-71018000D01*
X197670000Y-68670000D02*
X197670000Y-69781000D01*
X188949604Y-71018000D02*
X189521000Y-70446604D01*
X179224511Y-69422500D02*
X179224511Y-68552489D01*
X179224511Y-68552489D02*
X179541863Y-68235137D01*
X189521000Y-70446604D02*
X189521000Y-69051000D01*
X190500000Y-68072000D02*
X197072000Y-68072000D01*
%TO.N,PWM_MOT1_CH1*%
X179904000Y-70485000D02*
X179904000Y-69005648D01*
X188400000Y-89570000D02*
X188400000Y-93973000D01*
X188435000Y-87865000D02*
X188700000Y-87600000D01*
X188435000Y-89535000D02*
X188400000Y-89570000D01*
X188435000Y-89535000D02*
X188435000Y-87865000D01*
X179904000Y-69005648D02*
X179949511Y-68960137D01*
X188400000Y-93973000D02*
X188661000Y-94234000D01*
%TO.N,PWM_MOT1_CH2*%
X183275000Y-89600000D02*
X183275000Y-87875000D01*
X183275000Y-87875000D02*
X183100000Y-87700000D01*
X183481000Y-94234000D02*
X183275000Y-94028000D01*
X180404000Y-69591587D02*
X180944904Y-69050683D01*
X180404000Y-70485000D02*
X180404000Y-69591587D01*
X183275000Y-94028000D02*
X183275000Y-89600000D01*
%TO.N,/STM32G070RBT6/TX*%
X180904000Y-71472500D02*
X180904000Y-70485000D01*
X189956000Y-71918000D02*
X181349500Y-71918000D01*
X191262000Y-70612000D02*
X189956000Y-71918000D01*
X181349500Y-71918000D02*
X180904000Y-71472500D01*
%TO.N,/STM32G070RBT6/RX*%
X184643000Y-69200000D02*
X181820892Y-69200000D01*
X190754000Y-69850000D02*
X189136000Y-71468000D01*
X181404000Y-69616892D02*
X181404000Y-70485000D01*
X181820892Y-69200000D02*
X181404000Y-69616892D01*
X186911000Y-71468000D02*
X184643000Y-69200000D01*
X190754000Y-69215000D02*
X190754000Y-69850000D01*
X189136000Y-71468000D02*
X186911000Y-71468000D01*
%TO.N,Moustache_1*%
X186841500Y-68946500D02*
X186392000Y-68497000D01*
X187421243Y-68946500D02*
X186841500Y-68946500D01*
X187695542Y-69220799D02*
X187421243Y-68946500D01*
%TO.N,Moustache_2*%
X187429500Y-67997000D02*
X186392000Y-67997000D01*
X187715718Y-68221500D02*
X187654000Y-68221500D01*
X187654000Y-68221500D02*
X187429500Y-67997000D01*
%TO.N,Moustache_3*%
X193550500Y-67497000D02*
X186392000Y-67497000D01*
X193700000Y-67347500D02*
X193550500Y-67497000D01*
%TO.N,Codeur1_PH1*%
X183282607Y-67221500D02*
X183507107Y-66997000D01*
X183507107Y-66997000D02*
X186392000Y-66997000D01*
%TO.N,Codeur1_PH2*%
X182389854Y-66497000D02*
X186392000Y-66497000D01*
X182299887Y-66586967D02*
X182389854Y-66497000D01*
%TO.N,Codeur2_PH1*%
X182301146Y-65587465D02*
X184787465Y-65587465D01*
X185197000Y-65997000D02*
X186392000Y-65997000D01*
X184787465Y-65587465D02*
X185197000Y-65997000D01*
%TO.N,Codeur2_PH2*%
X184484005Y-64588049D02*
X185392956Y-65497000D01*
X182288049Y-64588049D02*
X184484005Y-64588049D01*
X185392956Y-65497000D02*
X186392000Y-65497000D01*
%TO.N,SPI1_CS*%
X186392000Y-63997000D02*
X195061000Y-63997000D01*
X199907396Y-71382000D02*
X201168000Y-71382000D01*
X198120000Y-69594604D02*
X199907396Y-71382000D01*
X195061000Y-63997000D02*
X198120000Y-67056000D01*
X198120000Y-67056000D02*
X198120000Y-69594604D01*
%TO.N,SPI1_MISO*%
X186392000Y-63497000D02*
X205737000Y-63497000D01*
X209042000Y-66802000D02*
X209042000Y-69586005D01*
X205737000Y-63497000D02*
X209042000Y-66802000D01*
X207746005Y-70882000D02*
X205468000Y-70882000D01*
X209042000Y-69586005D02*
X207746005Y-70882000D01*
%TO.N,/STM32G070RBT6/SWDIO*%
X198560000Y-54737000D02*
X190800000Y-62497000D01*
X199390000Y-54737000D02*
X198560000Y-54737000D01*
X190800000Y-62497000D02*
X186392000Y-62497000D01*
%TO.N,/STM32G070RBT6/SWCLK*%
X197865000Y-54795604D02*
X197865000Y-54042000D01*
X198440000Y-53467000D02*
X199390000Y-53467000D01*
X186392000Y-61997000D02*
X190663604Y-61997000D01*
X190663604Y-61997000D02*
X197865000Y-54795604D01*
X198560000Y-53467000D02*
X199390000Y-53467000D01*
X197865000Y-54042000D02*
X198440000Y-53467000D01*
%TO.N,Net-(D401-K)*%
X190185000Y-89535000D02*
X192104000Y-89535000D01*
%TO.N,LIDAR_DEV*%
X179878305Y-61812000D02*
X180404000Y-61286305D01*
X178578620Y-61102634D02*
X178578620Y-61112925D01*
X178578620Y-61112925D02*
X179277695Y-61812000D01*
X179277695Y-61812000D02*
X179878305Y-61812000D01*
X180404000Y-61286305D02*
X180404000Y-59009000D01*
%TO.N,LIDAR_M*%
X179904000Y-59009000D02*
X179904000Y-60761000D01*
X179904000Y-60761000D02*
X179578000Y-61087000D01*
%TO.N,Bordure_1*%
X177904000Y-57522500D02*
X178022500Y-57404000D01*
X177904000Y-59009000D02*
X177904000Y-57522500D01*
%TO.N,Bordure_2*%
X177404000Y-58024000D02*
X176784000Y-57404000D01*
X177404000Y-59009000D02*
X177404000Y-58024000D01*
%TO.N,LIDAR_TX*%
X175366000Y-54081000D02*
X168402000Y-47117000D01*
X176904000Y-59009000D02*
X175366000Y-57471000D01*
X166283000Y-40640000D02*
X164632000Y-42291000D01*
X167767000Y-40640000D02*
X166283000Y-40640000D01*
X175366000Y-57471000D02*
X175366000Y-54081000D01*
X168402000Y-47117000D02*
X168402000Y-41275000D01*
X168402000Y-41275000D02*
X167767000Y-40640000D01*
%TO.N,ADC_1*%
X198527000Y-95377000D02*
X198700000Y-95204000D01*
X189738000Y-84836000D02*
X189738000Y-81557500D01*
X198700000Y-95204000D02*
X198700000Y-93394000D01*
X198606000Y-93300000D02*
X198606000Y-91273695D01*
X190801000Y-85899000D02*
X189738000Y-84836000D01*
X193231305Y-85899000D02*
X190801000Y-85899000D01*
X197590000Y-95377000D02*
X198527000Y-95377000D01*
X198700000Y-93394000D02*
X198606000Y-93300000D01*
X198606000Y-91273695D02*
X193231305Y-85899000D01*
%TO.N,ADC_2*%
X178174695Y-86000000D02*
X185800000Y-86000000D01*
X174852500Y-89322195D02*
X178174695Y-86000000D01*
X174810000Y-93717500D02*
X174852500Y-93675000D01*
X187071000Y-84729000D02*
X187071000Y-81557500D01*
X174810000Y-95367000D02*
X174810000Y-93717500D01*
X174677000Y-95500000D02*
X174810000Y-95367000D01*
X174852500Y-93675000D02*
X174852500Y-89322195D01*
X174093000Y-95500000D02*
X174677000Y-95500000D01*
X185800000Y-86000000D02*
X187071000Y-84729000D01*
D56*
%TO.N,/Drivers_moteurs/Motor1-*%
X182300000Y-97000000D02*
X182300000Y-97000000D01*
X182526000Y-96774000D02*
X182300000Y-97000000D01*
X182300000Y-97000000D02*
X181200000Y-98100000D01*
X182300000Y-97000000D02*
X182300000Y-97000000D01*
X183481000Y-96774000D02*
X182526000Y-96774000D01*
%TO.N,/Drivers_moteurs/Motor1+*%
X190100000Y-98100000D02*
X190156000Y-98044000D01*
X191200000Y-98100000D02*
X191256000Y-98044000D01*
X191256000Y-98044000D02*
X192419000Y-98044000D01*
X188441000Y-98044000D02*
X190044000Y-98044000D01*
X192419000Y-98044000D02*
X192475000Y-98100000D01*
X190156000Y-98044000D02*
X191144000Y-98044000D01*
X190044000Y-98044000D02*
X190100000Y-98100000D01*
X191144000Y-98044000D02*
X191200000Y-98100000D01*
%TO.N,/Drivers_moteurs/Motor2+*%
X168454500Y-97917000D02*
X168537500Y-98000000D01*
X167283000Y-97917000D02*
X168454500Y-97917000D01*
X166183000Y-97917000D02*
X164979000Y-97917000D01*
X166183000Y-97917000D02*
X167283000Y-97917000D01*
X168537500Y-98000000D02*
X167437500Y-98000000D01*
%TO.N,/Drivers_moteurs/Motor2-*%
X158200000Y-97563918D02*
X158200000Y-97600000D01*
X157834500Y-97929418D02*
X157834500Y-98000000D01*
X158163918Y-97600000D02*
X157834500Y-97929418D01*
X158700000Y-97063918D02*
X158200000Y-97563918D01*
X158700000Y-97063918D02*
X159116918Y-96647000D01*
X158200000Y-97600000D02*
X158163918Y-97600000D01*
X159116918Y-96647000D02*
X160019000Y-96647000D01*
D55*
%TO.N,Moustache_4*%
X179404000Y-57971500D02*
X179404000Y-59009000D01*
X179844500Y-57531000D02*
X179404000Y-57971500D01*
X180086000Y-57531000D02*
X179844500Y-57531000D01*
D54*
%TO.N,Net-(PS301-EN)*%
X147424500Y-84272000D02*
X147528000Y-84375500D01*
X147528000Y-84375500D02*
X149623500Y-84375500D01*
%TO.N,Net-(U301-BST)*%
X135636000Y-91305500D02*
X135636000Y-90408000D01*
X135636000Y-90408000D02*
X137386500Y-88657500D01*
X137386500Y-88607500D02*
X137379500Y-88600500D01*
X137386500Y-88657500D02*
X137386500Y-88607500D01*
D55*
X137411500Y-88632500D02*
X137379500Y-88600500D01*
%TO.N,Net-(U301-FB)*%
X139361500Y-91205000D02*
X139827000Y-91670500D01*
X139361500Y-88632500D02*
X139361500Y-91205000D01*
%TO.N,Net-(U301-EN{slash}SYNC)*%
X138061500Y-88632500D02*
X138061500Y-91634500D01*
X138061500Y-91634500D02*
X138049000Y-91647000D01*
D54*
%TO.N,Net-(U301-PG)*%
X141983500Y-85965500D02*
X139453500Y-85965500D01*
X139453500Y-85965500D02*
X139386500Y-86032500D01*
D55*
%TO.N,Net-(D402-K)*%
X181525000Y-89600000D02*
X179756500Y-89600000D01*
%TO.N,Net-(D403-K)*%
X166995000Y-89700000D02*
X168890500Y-89700000D01*
%TO.N,Net-(D404-K)*%
X158395500Y-89600000D02*
X156500000Y-89600000D01*
D56*
%TO.N,Net-(SW302-B)*%
X140460000Y-62103000D02*
X140718000Y-61845000D01*
X134623000Y-62103000D02*
X140460000Y-62103000D01*
D55*
%TO.N,/Drivers_moteurs/M1_VM*%
X197590000Y-94727000D02*
X195315000Y-94727000D01*
D54*
X193268000Y-96774000D02*
X193780000Y-96262000D01*
X188441000Y-96774000D02*
X193268000Y-96774000D01*
D55*
X195315000Y-94727000D02*
X193780000Y-96262000D01*
D54*
%TO.N,/Drivers_moteurs/In_2-*%
X169872000Y-96647000D02*
X169898000Y-96673000D01*
D55*
X173835000Y-94850000D02*
X172312500Y-94850000D01*
D54*
X165199000Y-96647000D02*
X169872000Y-96647000D01*
D55*
X172312500Y-94850000D02*
X172200000Y-94737500D01*
X169898000Y-96673000D02*
X171833500Y-94737500D01*
%TD*%
M02*
