%TF.GenerationSoftware,KiCad,Pcbnew,(7.0.0)*%
%TF.CreationDate,2023-10-26T11:16:44+02:00*%
%TF.ProjectId,Kyttiludzinator,4b797474-696c-4756-947a-696e61746f72,rev?*%
%TF.SameCoordinates,Original*%
%TF.FileFunction,Soldermask,Bot*%
%TF.FilePolarity,Negative*%
%FSLAX46Y46*%
G04 Gerber Fmt 4.6, Leading zero omitted, Abs format (unit mm)*
G04 Created by KiCad (PCBNEW (7.0.0)) date 2023-10-26 11:16:44*
%MOMM*%
%LPD*%
G01*
G04 APERTURE LIST*
G04 Aperture macros list*
%AMRoundRect*
0 Rectangle with rounded corners*
0 $1 Rounding radius*
0 $2 $3 $4 $5 $6 $7 $8 $9 X,Y pos of 4 corners*
0 Add a 4 corners polygon primitive as box body*
4,1,4,$2,$3,$4,$5,$6,$7,$8,$9,$2,$3,0*
0 Add four circle primitives for the rounded corners*
1,1,$1+$1,$2,$3*
1,1,$1+$1,$4,$5*
1,1,$1+$1,$6,$7*
1,1,$1+$1,$8,$9*
0 Add four rect primitives between the rounded corners*
20,1,$1+$1,$2,$3,$4,$5,0*
20,1,$1+$1,$4,$5,$6,$7,0*
20,1,$1+$1,$6,$7,$8,$9,0*
20,1,$1+$1,$8,$9,$2,$3,0*%
G04 Aperture macros list end*
%ADD10RoundRect,0.250000X0.725000X-0.600000X0.725000X0.600000X-0.725000X0.600000X-0.725000X-0.600000X0*%
%ADD11O,1.950000X1.700000*%
%ADD12R,1.000000X1.000000*%
%ADD13C,0.800000*%
%ADD14C,6.400000*%
%ADD15RoundRect,0.250000X-0.750000X0.600000X-0.750000X-0.600000X0.750000X-0.600000X0.750000X0.600000X0*%
%ADD16O,2.000000X1.700000*%
%ADD17RoundRect,0.250000X0.600000X0.725000X-0.600000X0.725000X-0.600000X-0.725000X0.600000X-0.725000X0*%
%ADD18O,1.700000X1.950000*%
%ADD19RoundRect,0.250000X-0.600000X-0.725000X0.600000X-0.725000X0.600000X0.725000X-0.600000X0.725000X0*%
%ADD20C,3.000000*%
G04 APERTURE END LIST*
D10*
%TO.C,J504*%
X212958000Y-85859000D03*
D11*
X212957999Y-83358999D03*
X212957999Y-80858999D03*
X212957999Y-78358999D03*
%TD*%
D12*
%TO.C,REF\u002A\u002A*%
X158622999Y-62991999D03*
%TD*%
D13*
%TO.C,REFe*%
X210200000Y-43000000D03*
X210902944Y-41302944D03*
X210902944Y-44697056D03*
X212600000Y-40600000D03*
D14*
X212600000Y-43000000D03*
D13*
X212600000Y-45400000D03*
X214297056Y-41302944D03*
X214297056Y-44697056D03*
X215000000Y-43000000D03*
%TD*%
D15*
%TO.C,Alim_charger301*%
X129485000Y-50566000D03*
D16*
X129484999Y-53065999D03*
%TD*%
D12*
%TO.C,REF\u002A\u002A*%
X165099999Y-87799999D03*
%TD*%
D17*
%TO.C,J502*%
X155448000Y-42291000D03*
D18*
X152947999Y-42290999D03*
X150447999Y-42290999D03*
%TD*%
D13*
%TO.C,REF\u002A\u002A*%
X209600000Y-103000000D03*
X210302944Y-101302944D03*
X210302944Y-104697056D03*
X212000000Y-100600000D03*
D14*
X212000000Y-103000000D03*
D13*
X212000000Y-105400000D03*
X213697056Y-101302944D03*
X213697056Y-104697056D03*
X214400000Y-103000000D03*
%TD*%
D17*
%TO.C,J503*%
X179632000Y-42291000D03*
D18*
X177131999Y-42290999D03*
X174631999Y-42290999D03*
X172131999Y-42290999D03*
X169631999Y-42290999D03*
X167131999Y-42290999D03*
X164631999Y-42290999D03*
X162131999Y-42290999D03*
%TD*%
D15*
%TO.C,Alim_batterie301*%
X129794000Y-66548000D03*
D16*
X129793999Y-69047999D03*
%TD*%
D13*
%TO.C,REF\u002A\u002A*%
X129200000Y-103000000D03*
X129902944Y-101302944D03*
X129902944Y-104697056D03*
X131600000Y-100600000D03*
D14*
X131600000Y-103000000D03*
D13*
X131600000Y-105400000D03*
X133297056Y-101302944D03*
X133297056Y-104697056D03*
X134000000Y-103000000D03*
%TD*%
D10*
%TO.C,J505*%
X212852000Y-57277000D03*
D11*
X212851999Y-54776999D03*
X212851999Y-52276999D03*
X212851999Y-49776999D03*
%TD*%
D17*
%TO.C,J506*%
X194437000Y-42291000D03*
D18*
X191936999Y-42290999D03*
X189436999Y-42290999D03*
X186936999Y-42290999D03*
%TD*%
D12*
%TO.C,REF\u002A\u002A*%
X188699999Y-87599999D03*
%TD*%
%TO.C,REF\u002A\u002A*%
X155574999Y-60324999D03*
%TD*%
D19*
%TO.C,J402*%
X157800000Y-104000000D03*
D18*
X160299999Y-103999999D03*
X162799999Y-103999999D03*
X165299999Y-103999999D03*
X167799999Y-103999999D03*
X170299999Y-103999999D03*
%TD*%
D12*
%TO.C,REF\u002A\u002A*%
X159892999Y-87629999D03*
%TD*%
D10*
%TO.C,J509*%
X212958000Y-72203000D03*
D11*
X212957999Y-69702999D03*
X212957999Y-67202999D03*
X212957999Y-64702999D03*
%TD*%
D17*
%TO.C,J501*%
X143764000Y-42418000D03*
D18*
X141263999Y-42417999D03*
X138763999Y-42417999D03*
%TD*%
D12*
%TO.C,REF\u002A\u002A*%
X183099999Y-87699999D03*
%TD*%
%TO.C,REF\u002A\u002A*%
X152653999Y-62991999D03*
%TD*%
D19*
%TO.C,J401*%
X181300000Y-104100000D03*
D18*
X183799999Y-104099999D03*
X186299999Y-104099999D03*
X188799999Y-104099999D03*
X191299999Y-104099999D03*
X193799999Y-104099999D03*
%TD*%
D20*
%TO.C,SW302*%
X140718000Y-57145000D03*
X140718000Y-61845000D03*
X140718000Y-66545000D03*
%TD*%
D13*
%TO.C,REF\u002A\u002A*%
X129125944Y-42718056D03*
X129828888Y-41021000D03*
X129828888Y-44415112D03*
X131525944Y-40318056D03*
D14*
X131525944Y-42718056D03*
D13*
X131525944Y-45118056D03*
X133223000Y-41021000D03*
X133223000Y-44415112D03*
X133925944Y-42718056D03*
%TD*%
M02*
